<?xml version="1.0" encoding="UTF-8" standalone="no"?><!DOCTYPE svg PUBLIC "-//W3C//DTD SVG 1.1//EN" "http://www.w3.org/Graphics/SVG/1.1/DTD/svg11.dtd"><svg width="100%" height="100%" viewBox="0 0 2845 2845" version="1.1" xmlns="http://www.w3.org/2000/svg" xmlns:xlink="http://www.w3.org/1999/xlink" xml:space="preserve" xmlns:serif="http://www.serif.com/" style="fill-rule:evenodd;clip-rule:evenodd;stroke-linecap:round;stroke-linejoin:round;stroke-miterlimit:1.5;"><rect id="Transparent-black-icon" serif:id="Transparent black icon" x="0" y="0" width="2844.44" height="2844.44" style="fill:#fff;fill-opacity:0;"/><g id="Flower"><path id="Stem" d="M1463.78,1363.37c-349.014,104.722 0,767.346 0,986.246" style="fill:none;stroke:#74b652;stroke-width:27.78px;"/><g id="Petals"><g><path d="M731.235,1714.17c-6.48,3.296 -10.6,10.001 -10.6,17.305l-0,220.732c-0,10.713 8.69,19.402 19.44,19.402l220.732,0c7.304,0 13.971,-4.082 17.305,-10.6c15.619,-30.639 62.927,-123.382 112.744,-221.106c20.264,-39.742 12.623,-88.023 -18.953,-119.562c-31.538,-31.538 -79.782,-39.18 -119.561,-18.916c-97.687,49.818 -190.467,97.126 -221.107,112.745Z" style="fill:#7b52ae;"/></g><g><path d="M2093.73,845.432c6.48,-3.296 10.6,-10.001 10.6,-17.305l0,-220.732c0,-10.713 -8.69,-19.403 -19.44,-19.403l-220.732,0c-7.304,0 -13.971,4.083 -17.305,10.601c-15.619,30.639 -62.927,123.382 -112.744,221.106c-20.264,39.742 -12.623,88.023 18.953,119.562c31.538,31.538 79.783,39.179 119.562,18.915c97.687,-49.817 190.467,-97.125 221.106,-112.744Z" style="fill:#7b52ae;"/></g><g><path d="M1587.04,490.967c2.251,-6.913 0.424,-14.568 -4.741,-19.732c-28.393,-28.393 -120.908,-120.908 -156.081,-156.081c-7.575,-7.575 -19.864,-7.575 -27.466,0.026l-156.081,156.081c-5.165,5.165 -6.992,12.766 -4.741,19.732c10.621,32.71 42.748,131.741 76.624,236.068c13.772,42.431 53.316,71.168 97.944,71.141c44.603,0 84.119,-28.71 97.919,-71.167c33.848,-104.301 66.002,-203.358 76.623,-236.068Z" style="fill:#7b52ae;"/></g><g><path d="M2201.35,1454.35c6.913,2.252 14.568,0.424 19.732,-4.741c28.393,-28.393 120.908,-120.908 156.081,-156.081c7.575,-7.575 7.575,-19.864 -0.026,-27.466c-35.147,-35.146 -127.688,-127.688 -156.081,-156.081c-5.165,-5.164 -12.766,-6.992 -19.732,-4.741c-32.71,10.621 -131.741,42.748 -236.068,76.624c-42.431,13.773 -71.168,53.316 -71.141,97.945c-0,44.602 28.71,84.119 71.167,97.918c104.301,33.849 203.358,66.002 236.068,76.623Z" style="fill:#7b52ae;"/></g><g><path d="M623.659,1105.25c-6.912,-2.252 -14.567,-0.424 -19.731,4.741c-28.393,28.392 -120.908,120.907 -156.082,156.081c-7.575,7.575 -7.575,19.864 0.027,27.466l156.081,156.081c5.165,5.164 12.766,6.992 19.732,4.741c32.71,-10.621 131.741,-42.749 236.068,-76.624c42.431,-13.773 71.168,-53.316 71.141,-97.945c0,-44.602 -28.71,-84.119 -71.167,-97.918c-104.301,-33.849 -203.359,-66.003 -236.069,-76.623Z" style="fill:#7b52ae;"/></g><g><path d="M1846.88,1961.06c3.296,6.48 10.001,10.6 17.305,10.6l220.732,-0c10.712,-0 19.402,-8.69 19.402,-19.44l0,-220.732c0,-7.304 -4.083,-13.971 -10.6,-17.305c-30.64,-15.619 -123.382,-62.927 -221.107,-112.745c-39.741,-20.264 -88.023,-12.622 -119.561,18.954c-31.539,31.538 -39.18,79.782 -18.916,119.561c49.818,97.687 97.125,190.467 112.745,221.107Z" style="fill:#7b52ae;"/></g><g><path d="M975.073,595.49c-3.297,-6.48 -10.001,-10.6 -17.305,-10.6l-220.732,-0c-10.713,-0 -19.403,8.69 -19.403,19.44l0,220.732c0,7.304 4.083,13.971 10.6,17.305c30.64,15.619 123.383,62.927 221.107,112.744c39.741,20.264 88.023,12.623 119.561,-18.953c31.539,-31.538 39.18,-79.782 18.916,-119.561c-49.817,-97.687 -97.125,-190.467 -112.744,-221.107Z" style="fill:#7b52ae;"/></g></g></g><rect x="0" y="0" width="2844.44" height="2844.44" style="fill:none;stroke:#aaa;stroke-width:5.56px;"/></svg>