<?xml version="1.0" encoding="UTF-8" standalone="no"?><!DOCTYPE svg PUBLIC "-//W3C//DTD SVG 1.1//EN" "http://www.w3.org/Graphics/SVG/1.1/DTD/svg11.dtd"><svg width="100%" height="100%" viewBox="0 0 4267 4267" version="1.1" xmlns="http://www.w3.org/2000/svg" xmlns:xlink="http://www.w3.org/1999/xlink" xml:space="preserve" xmlns:serif="http://www.serif.com/" style="fill-rule:evenodd;clip-rule:evenodd;stroke-linecap:round;stroke-linejoin:round;stroke-miterlimit:1.5;"><rect x="0" y="0" width="4266.67" height="4266.67" style="fill:#1a1a1a;"/><g id="Charcoal-icon" serif:id="Charcoal icon"><g id="Flower"><path id="Stem" d="M2195.67,2182.56c-523.521,157.084 0,1151.02 0,1479.37" style="fill:none;stroke:#74b652;stroke-width:83.33px;"/><g id="Petals"><g><path d="M1111.43,2861.41c-9.72,4.95 -15.9,15 -15.9,25.966l-0,331.095c-0,16.065 13.035,29.101 29.16,29.101l331.099,-0c10.956,-0 20.956,-6.12 25.957,-15.901c23.429,-45.96 94.393,-185.07 169.123,-331.665c30.39,-59.611 18.93,-132.031 -28.44,-179.341c-47.295,-47.31 -119.669,-58.77 -179.338,-28.38c-146.531,74.73 -285.701,145.695 -331.661,169.125Z" style="fill:#7b52ae;"/></g><g><path d="M3155.18,1558.3c9.72,-4.944 15.9,-15.002 15.9,-25.958l-0,-331.099c-0,-16.069 -13.035,-29.104 -29.16,-29.104l-331.096,-0c-10.965,-0 -20.955,6.124 -25.965,15.901c-23.43,45.959 -94.38,185.074 -169.111,331.66c-30.39,59.613 -18.93,132.035 28.426,179.344c47.31,47.307 119.685,58.768 179.34,28.372c146.535,-74.725 285.706,-145.688 331.666,-169.116Z" style="fill:#7b52ae;"/></g><g><path d="M2395.14,1026.6c3.375,-10.37 0.63,-21.852 -7.11,-29.598c-42.585,-42.59 -181.366,-181.363 -234.121,-234.122c-11.37,-11.363 -29.805,-11.363 -41.205,0.039l-234.121,234.122c-7.74,7.747 -10.485,19.149 -7.11,29.598c15.93,49.065 64.126,197.612 114.931,354.103c20.67,63.647 79.98,106.752 146.925,106.712c66.9,-0 126.18,-43.065 146.88,-106.751c50.776,-156.452 99.001,-305.038 114.931,-354.103Z" style="fill:#7b52ae;"/></g><g><path d="M3316.61,2471.68c10.365,3.375 21.855,0.63 29.595,-7.11c42.586,-42.585 181.366,-181.365 234.121,-234.12c11.37,-11.37 11.37,-29.805 -0.03,-41.205c-52.725,-52.711 -191.535,-191.536 -234.121,-234.121c-7.755,-7.74 -19.155,-10.485 -29.61,-7.11c-49.065,15.93 -197.61,64.125 -354.091,114.93c-63.645,20.67 -106.755,79.98 -106.71,146.926c0,66.9 43.065,126.18 106.74,146.88c156.451,50.775 305.041,99 354.106,114.93Z" style="fill:#7b52ae;"/></g><g><path d="M950.064,1948.03c-10.368,-3.375 -21.85,-0.63 -29.596,7.11c-42.59,42.585 -181.363,181.365 -234.124,234.121c-11.362,11.37 -11.362,29.805 0.041,41.205l234.122,234.12c7.747,7.74 19.149,10.485 29.598,7.11c49.065,-15.93 197.612,-64.125 354.103,-114.93c63.646,-20.67 106.752,-79.98 106.712,-146.925c-0,-66.901 -43.066,-126.181 -106.751,-146.881c-156.452,-50.775 -305.04,-99 -354.105,-114.93Z" style="fill:#7b52ae;"/></g><g><path d="M2784.9,3231.74c4.95,9.721 15,15.901 25.95,15.901l331.111,-0c16.065,-0 29.1,-13.036 29.1,-29.161l-0,-331.095c-0,-10.966 -6.12,-20.956 -15.9,-25.966c-45.96,-23.43 -185.071,-94.38 -331.666,-169.11c-59.61,-30.405 -132.03,-18.93 -179.34,28.425c-47.311,47.31 -58.771,119.67 -28.381,179.341c74.731,146.535 145.696,285.705 169.126,331.665Z" style="fill:#7b52ae;"/></g><g><path d="M1477.19,1183.38c-4.946,-9.72 -15.002,-15.9 -25.958,-15.9l-331.099,-0c-16.069,-0 -29.104,13.035 -29.104,29.16l-0,331.099c-0,10.956 6.124,20.956 15.9,25.957c45.96,23.429 185.075,94.391 331.661,169.117c59.612,30.396 132.031,18.934 179.341,-28.43c47.31,-47.307 58.77,-119.673 28.38,-179.342c-74.73,-146.531 -145.693,-285.701 -169.121,-331.661Z" style="fill:#7b52ae;"/></g></g></g></g></svg>