<?xml version="1.0" encoding="UTF-8" standalone="no"?><!DOCTYPE svg PUBLIC "-//W3C//DTD SVG 1.1//EN" "http://www.w3.org/Graphics/SVG/1.1/DTD/svg11.dtd"><svg width="100%" height="100%" viewBox="0 0 2134 2134" version="1.1" xmlns="http://www.w3.org/2000/svg" xmlns:xlink="http://www.w3.org/1999/xlink" xml:space="preserve" xmlns:serif="http://www.serif.com/" style="fill-rule:evenodd;clip-rule:evenodd;stroke-linecap:round;stroke-linejoin:round;stroke-miterlimit:1.5;"><rect id="Transparent-black-icon" serif:id="Transparent black icon" x="0" y="0" width="2133.33" height="2133.33" style="fill:#fff;fill-opacity:0;"/><g id="Flower"><path id="Stem" d="M1097.84,1022.53c-261.761,78.542 -0,575.51 -0,739.685" style="fill:none;stroke:#74b652;stroke-width:41.67px;"/><g id="Petals"><g><path d="M548.426,1285.63c-4.86,2.472 -7.95,7.501 -7.95,12.979l0,165.549c0,8.034 6.518,14.552 14.58,14.552l165.549,-0c5.478,-0 10.479,-3.062 12.979,-7.951c11.714,-22.979 47.195,-92.536 84.558,-165.829c15.198,-29.807 9.467,-66.018 -14.215,-89.672c-23.653,-23.654 -59.837,-29.384 -89.671,-14.186c-73.265,37.363 -142.85,72.843 -165.83,84.558Z" style="fill:#7b52ae;"/></g><g><path d="M1570.3,634.074c4.86,-2.472 7.95,-7.501 7.95,-12.979l0,-165.549c0,-8.034 -6.517,-14.552 -14.58,-14.552l-165.549,0c-5.478,0 -10.478,3.062 -12.978,7.951c-11.715,22.979 -47.196,92.536 -84.559,165.829c-15.198,29.807 -9.467,66.018 14.215,89.672c23.654,23.653 59.837,29.384 89.671,14.186c73.265,-37.363 142.85,-72.843 165.83,-84.558Z" style="fill:#7b52ae;"/></g><g><path d="M1190.28,368.225c1.689,-5.185 0.318,-10.925 -3.555,-14.799c-21.295,-21.295 -90.681,-90.681 -117.061,-117.061c-5.681,-5.681 -14.899,-5.681 -20.6,0.02l-117.06,117.061c-3.874,3.873 -5.245,9.575 -3.556,14.799c7.965,24.532 32.061,98.805 57.468,177.051c10.329,31.823 39.987,53.376 73.458,53.356c33.452,-0 63.089,-21.533 73.439,-53.376c25.386,-78.226 49.502,-152.519 57.467,-177.051Z" style="fill:#7b52ae;"/></g><g><path d="M1651.01,1090.76c5.185,1.688 10.926,0.318 14.799,-3.556c21.295,-21.295 90.681,-90.681 117.061,-117.061c5.681,-5.681 5.681,-14.898 -0.02,-20.599c-26.36,-26.36 -95.766,-95.766 -117.061,-117.061c-3.873,-3.874 -9.574,-5.244 -14.799,-3.556c-24.532,7.966 -98.805,32.061 -177.051,57.468c-31.823,10.329 -53.375,39.987 -53.356,73.458c0,33.452 21.533,63.09 53.376,73.439c78.226,25.387 152.519,49.502 177.051,57.468Z" style="fill:#7b52ae;"/></g><g><path d="M467.745,828.94c-5.185,-1.688 -10.926,-0.318 -14.799,3.556c-21.295,21.295 -90.681,90.681 -117.061,117.061c-5.681,5.681 -5.681,14.898 0.02,20.599l117.06,117.061c3.874,3.874 9.575,5.244 14.799,3.556c24.533,-7.966 98.806,-32.061 177.052,-57.468c31.822,-10.329 53.375,-39.987 53.355,-73.458c0,-33.452 -21.533,-63.09 -53.375,-73.439c-78.226,-25.387 -152.519,-49.502 -177.051,-57.468Z" style="fill:#7b52ae;"/></g><g><path d="M1385.16,1470.79c2.472,4.86 7.5,7.95 12.978,7.95l165.549,0c8.035,0 14.552,-6.517 14.552,-14.58l0,-165.549c0,-5.478 -3.062,-10.478 -7.95,-12.978c-22.979,-11.715 -92.536,-47.196 -165.83,-84.559c-29.806,-15.198 -66.017,-9.467 -89.671,14.215c-23.654,23.654 -29.385,59.837 -14.187,89.671c37.363,73.266 72.844,142.851 84.559,165.83Z" style="fill:#7b52ae;"/></g><g><path d="M731.304,446.618c-2.472,-4.86 -7.5,-7.951 -12.978,-7.951l-165.549,0c-8.035,0 -14.552,6.518 -14.552,14.58l-0,165.549c-0,5.478 3.062,10.479 7.95,12.979c22.98,11.715 92.537,47.195 165.83,84.558c29.806,15.198 66.017,9.468 89.671,-14.214c23.654,-23.654 29.385,-59.837 14.187,-89.672c-37.363,-73.265 -72.844,-142.85 -84.559,-165.829Z" style="fill:#7b52ae;"/></g></g></g><rect x="0" y="0" width="2133.33" height="2133.33" style="fill:none;stroke:#aaa;stroke-width:4.17px;"/></svg>