<?xml version="1.0" encoding="UTF-8" standalone="no"?><!DOCTYPE svg PUBLIC "-//W3C//DTD SVG 1.1//EN" "http://www.w3.org/Graphics/SVG/1.1/DTD/svg11.dtd"><svg width="100%" height="100%" viewBox="0 0 8000 3167" version="1.1" xmlns="http://www.w3.org/2000/svg" xmlns:xlink="http://www.w3.org/1999/xlink" xml:space="preserve" xmlns:serif="http://www.serif.com/" style="fill-rule:evenodd;clip-rule:evenodd;stroke-linecap:round;stroke-linejoin:round;stroke-miterlimit:1.5;"><rect id="White-Logo" serif:id="White Logo" x="0" y="-0" width="8000" height="3166.67" style="fill:#fff;"/><g id="Flower"><path id="Stem" d="M1494.36,1509.27c-384.041,115.477 -0,846.147 -0,1087.53" style="fill:none;stroke:#74b652;stroke-width:41.67px;"/><g id="Petals"><g><path d="M688.295,1896.09c-7.13,3.634 -11.664,11.028 -11.664,19.082l0,243.399c0,11.813 9.562,21.395 21.391,21.395l242.885,0c8.037,0 15.373,-4.502 19.042,-11.689c17.187,-33.785 69.242,-136.052 124.059,-243.812c22.298,-43.823 13.89,-97.062 -20.855,-131.84c-34.704,-34.777 -87.79,-43.203 -131.561,-20.858c-107.491,54.933 -209.582,107.099 -243.297,124.323Z" style="fill:#7b52ae;"/></g><g><path d="M2187.53,938.143c7.13,-3.634 11.664,-11.028 11.664,-19.082l0,-243.399c0,-11.813 -9.562,-21.395 -21.391,-21.395l-242.884,-0c-8.037,-0 -15.374,4.502 -19.042,11.688c-17.187,33.786 -69.243,136.053 -124.06,243.813c-22.297,43.823 -13.889,97.062 20.856,131.84c34.703,34.777 87.789,43.203 131.56,20.858c107.491,-54.934 209.583,-107.099 243.297,-124.323Z" style="fill:#7b52ae;"/></g><g><path d="M1629.99,547.277c2.477,-7.623 0.466,-16.063 -5.217,-21.758c-31.242,-31.309 -133.042,-133.324 -171.745,-172.11c-8.336,-8.352 -21.858,-8.352 -30.223,0.03l-171.745,172.109c-5.683,5.695 -7.694,14.077 -5.217,21.758c11.687,36.069 47.039,145.27 84.314,260.311c15.155,46.788 58.666,78.476 107.774,78.447c49.079,-0 92.561,-31.659 107.745,-78.476c37.246,-115.012 72.627,-224.242 84.314,-260.311Z" style="fill:#7b52ae;"/></g><g><path d="M2305.95,1609.59c7.607,2.483 16.029,0.468 21.712,-5.227c31.243,-31.309 133.043,-133.325 171.746,-172.11c8.335,-8.353 8.335,-21.904 -0.029,-30.286c-38.674,-38.756 -140.503,-140.801 -171.746,-172.11c-5.683,-5.695 -14.047,-7.71 -21.712,-5.227c-35.993,11.711 -144.962,47.138 -259.76,84.492c-46.689,15.187 -78.31,58.791 -78.281,108.003c0,49.182 31.592,92.757 78.31,107.973c114.769,37.325 223.767,72.781 259.76,84.492Z" style="fill:#7b52ae;"/></g><g><path d="M569.923,1224.65c-7.606,-2.483 -16.029,-0.468 -21.712,5.227c-31.242,31.309 -133.042,133.325 -171.745,172.11c-8.335,8.353 -8.335,21.904 0.029,30.286l171.745,172.11c5.683,5.695 14.048,7.71 21.713,5.227c35.992,-11.711 144.962,-47.138 259.76,-84.492c46.688,-15.187 78.31,-58.791 78.28,-108.003c0,-49.182 -31.592,-92.757 -78.309,-107.973c-114.769,-37.325 -223.768,-72.781 -259.761,-84.492Z" style="fill:#7b52ae;"/></g><g><path d="M1915.9,2168.34c3.627,7.146 11.004,11.689 19.041,11.689l242.885,-0c11.788,-0 21.35,-9.582 21.35,-21.436l-0,-243.4c-0,-8.054 -4.493,-15.406 -11.664,-19.082c-33.715,-17.223 -135.765,-69.389 -243.297,-124.322c-43.73,-22.345 -96.857,-13.92 -131.561,20.899c-34.704,34.777 -43.112,87.976 -20.814,131.84c54.817,107.718 106.873,210.026 124.06,243.812Z" style="fill:#7b52ae;"/></g><g><path d="M956.604,662.534c-3.627,-7.145 -11.004,-11.689 -19.041,-11.689l-242.885,0c-11.788,0 -21.35,9.583 -21.35,21.437l0,243.399c0,8.054 4.493,15.406 11.664,19.082c33.715,17.224 135.765,69.39 243.297,124.323c43.73,22.345 96.857,13.919 131.561,-20.9c34.704,-34.777 43.112,-87.975 20.814,-131.839c-54.817,-107.719 -106.873,-210.027 -124.06,-243.813Z" style="fill:#7b52ae;"/></g></g></g><g id="Bots"><g id="Shadow" transform="matrix(0.997885,2.46519e-32,0,1,-2079.58,0)"><text x="8421.52px" y="2509.22px" style="font-family:'MS-PGothic', 'MS PGothic', sans-serif;font-size:536.906px;fill:#555;fill-opacity:0;stroke:#aaa;stroke-width:0.71px;stroke-linecap:butt;stroke-miterlimit:2;">BOTS</text></g><g id="Main" transform="matrix(0.997885,2.46519e-32,0,1,-280.081,0)"><text x="6569.3px" y="2470.56px" style="font-family:'MS-PGothic', 'MS PGothic', sans-serif;font-size:536.529px;">BOTS</text></g></g><g id="Hyacinth"><g id="Shadow1" serif:id="Shadow"><path d="M3272.08,1303.88c-0,-4.968 1.413,-8.868 4.249,-11.703c2.828,-2.839 6.719,-4.258 11.676,-4.258l167.747,-0c4.956,-0 8.848,1.419 11.684,4.258c2.827,2.835 4.241,6.735 4.241,11.703l-0,712.851c-0,4.968 -1.414,8.868 -4.241,11.707c-2.836,2.835 -6.728,4.255 -11.684,4.255l-167.747,-0c-4.957,-0 -8.848,-1.42 -11.676,-4.255c-2.836,-2.839 -4.249,-6.739 -4.249,-11.707l-0,-270.246c-0,-3.545 -1.772,-5.319 -5.314,-5.319l-165.627,-0c-3.534,-0 -5.305,1.774 -5.305,5.319l-0,270.246c-0,4.968 -1.414,8.868 -4.25,11.707c-2.827,2.835 -6.719,4.255 -11.675,4.255l-167.747,-0c-4.957,-0 -8.848,-1.42 -11.684,-4.255c-2.828,-2.839 -4.241,-6.739 -4.241,-11.707l-0,-712.851c-0,-4.968 1.413,-8.868 4.241,-11.703c2.836,-2.839 6.727,-4.258 11.684,-4.258l167.747,-0c4.956,-0 8.848,1.419 11.675,4.258c2.836,2.835 4.25,6.735 4.25,11.703l-0,260.669c-0,3.548 1.771,5.319 5.305,5.319l165.627,0c3.542,0 5.314,-1.771 5.314,-5.319l-0,-260.669Zm7.368,0c-0,-2.716 0.54,-4.928 2.087,-6.481c1.555,-1.55 3.759,-2.09 6.47,-2.09l167.747,0c2.711,0 4.923,0.54 6.47,2.09c1.546,1.553 2.087,3.765 2.087,6.481l-0,712.851c-0,2.716 -0.541,4.928 -2.087,6.482c-1.547,1.55 -3.759,2.089 -6.47,2.089l-167.747,0c-2.711,0 -4.915,-0.539 -6.47,-2.089c-1.547,-1.554 -2.087,-3.766 -2.087,-6.482l-0,-270.246c-0,-4.154 -1.414,-7.134 -3.485,-9.212c-2.07,-2.079 -5.048,-3.494 -9.197,-3.494l-165.627,-0c-4.141,-0 -7.118,1.415 -9.189,3.494c-2.079,2.078 -3.492,5.058 -3.492,9.212l-0,270.246c-0,2.716 -0.533,4.928 -2.088,6.482c-1.547,1.55 -3.75,2.089 -6.461,2.089l-167.747,0c-2.711,0 -4.923,-0.539 -6.47,-2.089c-1.547,-1.554 -2.087,-3.766 -2.087,-6.482l-0,-712.851c-0,-2.716 0.54,-4.928 2.087,-6.481c1.547,-1.55 3.759,-2.09 6.47,-2.09l167.747,0c2.711,0 4.914,0.54 6.461,2.09c1.555,1.553 2.088,3.765 2.088,6.481l-0,260.669c-0,4.157 1.413,7.137 3.492,9.215c2.071,2.079 5.048,3.495 9.189,3.495l165.627,-0c4.149,-0 7.127,-1.416 9.197,-3.495c2.071,-2.078 3.485,-5.058 3.485,-9.215l-0,-260.669Z" style="fill:#555;"/><path d="M3764.71,2030.57c-4.956,0 -8.848,-1.419 -11.675,-4.254c-2.836,-2.839 -4.249,-6.739 -4.249,-11.704l-0,-235.136l-1.065,-6.384l-216.586,-466.015l-2.121,-8.513c0,-7.09 4.599,-10.638 13.796,-10.638l182.616,-0c9.206,-0 15.576,4.258 19.11,12.768l100.863,254.288c2.129,4.964 4.249,4.964 6.37,-0l100.863,-254.288c3.542,-8.51 9.912,-12.768 19.11,-12.768l183.68,-0c9.197,-0 13.804,3.548 13.804,10.638l-2.128,8.513l-218.707,466.015c-0.715,1.42 -1.065,3.549 -1.065,6.384l0,235.136c0,4.965 -1.413,8.865 -4.249,11.704c-2.827,2.835 -6.719,4.254 -11.675,4.254l-166.692,0Zm0,-7.386c-2.711,-0 -4.914,-0.544 -6.461,-2.093c-1.547,-1.55 -2.087,-3.766 -2.087,-6.479l-0,-235.136c-0,-0.406 -0.034,-0.811 -0.1,-1.213l-1.064,-6.384c-0.109,-0.659 -0.308,-1.3 -0.591,-1.905l-216.287,-465.373l-1.68,-6.721c0.4,-2.299 2.894,-2.564 6.37,-2.564l182.616,0c5.913,0 10.013,2.727 12.291,8.18l100.83,254.212c0.025,0.062 0.05,0.124 0.075,0.181c2.802,6.544 7.168,8.206 9.962,8.206c2.802,-0 7.168,-1.662 9.962,-8.206c0.025,-0.057 0.05,-0.119 0.075,-0.181l100.838,-254.212c2.279,-5.453 6.378,-8.18 12.283,-8.18l183.68,0c3.484,0 5.971,0.265 6.37,2.557c0,0.007 -1.671,6.713 -1.671,6.713l-218.391,465.334c-1.048,2.162 -1.78,5.319 -1.78,9.556l0,235.136c0,2.713 -0.54,4.929 -2.087,6.479c-1.547,1.549 -3.75,2.093 -6.461,2.093l-166.692,-0Z" style="fill:#555;"/><path d="M4569.48,2032.7c-9.904,-0 -15.925,-4.61 -18.046,-13.833l-23.359,-82.987c-1.414,-2.839 -3.185,-4.258 -5.305,-4.258l-225.085,-0c-2.121,-0 -3.892,1.419 -5.306,4.258l-23.359,82.987c-2.121,9.223 -8.141,13.833 -18.054,13.833l-181.551,-0c-12.74,-0 -17.339,-6.029 -13.796,-18.088l224.02,-713.918c2.828,-8.51 8.848,-12.768 18.046,-12.768l225.085,-0c9.197,-0 15.218,4.258 18.045,12.768l224.021,713.918c0.706,1.42 1.064,3.545 1.064,6.384c0,7.8 -4.956,11.704 -14.869,11.704l-181.551,-0Zm-0,-7.391c-3.069,0 -5.597,-0.507 -7.46,-1.937c-1.763,-1.347 -2.777,-3.469 -3.401,-6.167c-0.025,-0.116 -0.058,-0.228 -0.091,-0.344l-23.359,-82.987c-0.125,-0.449 -0.292,-0.884 -0.499,-1.3c-3.027,-6.062 -7.368,-8.339 -11.9,-8.339l-225.085,-0c-4.533,-0 -8.882,2.277 -11.9,8.339c-0.208,0.416 -0.375,0.851 -0.508,1.3l-23.351,82.987c-0.033,0.116 -0.066,0.228 -0.091,0.344c-0.624,2.698 -1.638,4.82 -3.401,6.167c-1.863,1.43 -4.391,1.937 -7.468,1.937l-181.551,0c-1.855,0 -3.468,-0.145 -4.848,-0.496c-0.99,-0.25 -1.822,-0.5 -2.296,-1.123c-0.457,-0.59 -0.457,-1.405 -0.432,-2.35c0.041,-1.365 0.341,-2.889 0.832,-4.591l223.97,-713.76c1.738,-5.163 5.447,-7.673 11.044,-7.673l225.085,0c5.563,0 9.272,2.484 11.01,7.594c0.025,0.079 224.02,713.919 224.02,713.919c0.125,0.373 0.266,0.738 0.441,1.086c0.341,0.681 0.283,1.724 0.283,3.081c-0,1.105 -0.067,2.046 -0.624,2.709c-1.272,1.503 -3.684,1.604 -6.869,1.604l-181.551,0Zm-237.484,-255.28c-0.075,0.257 -0.133,0.521 -0.175,0.785c-0.757,4.523 0.166,7.84 1.663,10.1c1.93,2.893 5.04,4.888 9.855,4.888l132.712,-0c5.372,-0 8.59,-2.198 10.387,-4.888c1.646,-2.474 2.503,-6.145 0.906,-11.07c0.008,0.025 -67.907,-238.171 -67.907,-238.171c-0.025,-0.105 -0.058,-0.206 -0.092,-0.308c-2.054,-6.185 -6.07,-8.245 -10.178,-8.245c-4.116,0 -8.125,2.06 -10.179,8.245c-0.041,0.113 -0.075,0.225 -0.108,0.337l-66.884,238.327Zm7.093,1.998c-0.707,4.259 0.707,6.384 4.25,6.384l132.712,0c4.25,0 5.663,-2.125 4.25,-6.384l-67.949,-238.326c-0.707,-2.126 -1.771,-3.19 -3.185,-3.19c-1.414,-0 -2.478,1.064 -3.185,3.19l-66.893,238.326Z" style="fill:#555;"/><path d="M5084.42,2041.21c-58.045,0 -109.179,-11.348 -153.42,-34.045c-44.24,-22.697 -78.568,-54.794 -102.983,-96.287c-24.424,-41.498 -36.631,-89.553 -36.631,-144.169l-0,-214.92c-0,-53.907 12.207,-101.429 36.631,-142.572c24.415,-41.138 58.743,-73.058 102.983,-95.755c44.241,-22.696 95.375,-34.045 153.42,-34.045c58.036,0 109.178,10.639 153.419,31.916c44.232,21.281 78.559,51.249 102.983,89.907c24.415,38.655 36.631,94.158 36.631,145.23c0,6.384 -5.314,10.283 -15.925,11.703l-170.94,-0c-8.491,-0 -12.74,-3.9 -12.74,-11.703c0,-29.081 -8.49,-52.31 -25.48,-69.691c-16.989,-17.377 -39.641,-26.064 -67.948,-26.064c-28.316,-0 -50.96,8.687 -67.949,26.064c-16.99,17.381 -25.48,40.61 -25.48,69.691l0,228.752c0,28.371 8.49,51.245 25.48,68.626c16.989,17.378 39.633,26.065 67.949,26.065c28.307,-0 50.959,-8.687 67.948,-26.065c16.99,-17.381 25.48,-40.255 25.48,-68.626c0,-4.258 1.414,-7.448 4.249,-9.577c2.828,-2.126 6.72,-2.836 11.676,-2.126l170.059,0c10.619,0.71 15.925,4.255 15.925,10.639c-0,51.071 -14.52,104.623 -38.935,143.636c-24.424,39.009 -58.751,69.332 -102.983,90.968c-44.241,21.632 -95.383,32.448 -153.419,32.448Zm109.353,-490.388l-3.185,-0.036c-1.988,-0 -3.576,-0.072 -4.574,-0.985c-0.773,-0.717 -0.79,-1.901 -0.79,-3.331c0,-31.268 -9.322,-56.174 -27.592,-74.858c-18.32,-18.743 -42.677,-28.288 -73.212,-28.288c-30.536,0 -54.893,9.545 -73.221,28.288c-18.262,18.684 -27.584,43.59 -27.584,74.858l-0,228.752c-0,30.533 9.305,55.091 27.584,73.794c18.328,18.742 42.685,28.287 73.221,28.287c30.535,0 54.892,-9.545 73.212,-28.287c18.287,-18.703 27.592,-43.261 27.592,-73.794c0,-1.579 0.241,-2.875 1.297,-3.664c1.489,-1.123 3.601,-1.101 6.212,-0.724c0.341,0.047 0.691,0.072 1.04,0.072l169.801,-0c3.035,0.217 5.497,0.659 7.335,1.521c0.848,0.398 1.472,0.876 1.472,1.731c-0,49.67 -14.054,101.766 -37.804,139.707c-23.7,37.862 -57.039,67.261 -99.973,88.256c-43.301,21.176 -93.371,31.702 -150.184,31.702c-56.764,0 -106.793,-11.037 -150.06,-33.234c-42.943,-22.038 -76.289,-53.182 -99.998,-93.466c-23.775,-40.408 -35.6,-87.224 -35.6,-140.414l-0,-214.92c-0,-52.473 11.817,-98.746 35.592,-138.791c23.708,-39.948 57.055,-70.922 100.006,-92.96c43.267,-22.197 93.296,-33.234 150.06,-33.234c56.83,0 106.908,10.356 150.225,31.192c42.918,20.643 76.257,49.688 99.948,87.195c23.75,37.597 35.484,91.612 35.484,141.279c0,1.068 -0.765,1.72 -1.829,2.292c-1.813,0.967 -4.225,1.589 -7.177,2.017c-0.05,0.007 -167.298,0.007 -167.298,0.007l-0,0.036Z" style="fill:#555;"/><path d="M5463.44,2032.7c-4.956,-0 -8.848,-1.42 -11.675,-4.255c-2.836,-2.839 -4.249,-6.739 -4.249,-11.707l-0,-712.851c-0,-4.968 1.413,-8.868 4.249,-11.703c2.827,-2.839 6.719,-4.258 11.675,-4.258l167.756,-0c4.948,-0 8.84,1.419 11.675,4.258c2.828,2.835 4.25,6.735 4.25,11.703l-0,712.851c-0,4.968 -1.422,8.868 -4.25,11.707c-2.835,2.835 -6.727,4.255 -11.675,4.255l-167.756,-0Zm0,-7.391c-2.71,0 -4.914,-0.539 -6.461,-2.089c-1.547,-1.554 -2.087,-3.766 -2.087,-6.482l-0,-712.851c-0,-2.716 0.54,-4.928 2.087,-6.481c1.547,-1.55 3.751,-2.09 6.461,-2.09l167.756,0c2.703,0 4.915,0.54 6.461,2.09c1.547,1.553 2.088,3.765 2.088,6.481l-0,712.851c-0,2.716 -0.541,4.928 -2.088,6.482c-1.546,1.55 -3.758,2.089 -6.461,2.089l-167.756,0Z" style="fill:#555;"/><path d="M6146.13,1303.88c-0,-4.968 1.413,-8.868 4.249,-11.703c2.827,-2.839 6.719,-4.258 11.675,-4.258l167.748,-0c4.956,-0 8.848,1.419 11.683,4.258c2.828,2.835 4.25,6.735 4.25,11.703l-0,712.851c-0,4.968 -1.422,8.868 -4.25,11.707c-2.835,2.835 -6.727,4.255 -11.683,4.255l-160.313,-0c-8.499,-0 -14.869,-3.549 -19.11,-10.639l-216.595,-361.747c-1.413,-2.129 -2.827,-3.016 -4.241,-2.661c-1.422,0.355 -2.129,1.952 -2.129,4.787l2.129,354.298c0,4.968 -1.422,8.868 -4.249,11.707c-2.827,2.835 -6.728,4.255 -11.676,4.255l-167.755,-0c-4.956,-0 -8.848,-1.42 -11.676,-4.255c-2.835,-2.839 -4.249,-6.739 -4.249,-11.707l0,-712.851c0,-4.968 1.414,-8.868 4.249,-11.703c2.828,-2.839 6.72,-4.258 11.676,-4.258l160.321,-0c8.491,-0 14.861,3.548 19.11,10.638l215.53,361.75c1.414,2.126 2.827,3.013 4.241,2.658c1.422,-0.355 2.129,-1.951 2.129,-4.787l-1.064,-354.298Zm7.376,-0.003c-0,-2.716 0.54,-4.925 2.087,-6.478c1.547,-1.55 3.75,-2.09 6.461,-2.09l167.748,0c2.711,0 4.923,0.54 6.469,2.09c1.547,1.553 2.088,3.765 2.088,6.481l-0,712.851c-0,2.716 -0.541,4.928 -2.088,6.482c-1.546,1.55 -3.758,2.089 -6.469,2.089l-160.313,0c-5.672,0 -9.954,-2.314 -12.79,-7.05l-216.586,-361.747c-0.067,-0.101 -0.125,-0.199 -0.192,-0.297c-3.8,-5.714 -8.365,-6.684 -12.166,-5.732c-3.85,0.967 -7.708,4.251 -7.708,11.957l2.12,354.309c0,2.712 -0.54,4.921 -2.087,6.471c-1.547,1.55 -3.759,2.089 -6.462,2.089l-167.755,0c-2.711,0 -4.915,-0.539 -6.461,-2.089c-1.547,-1.554 -2.088,-3.766 -2.088,-6.482l0,-712.851c0,-2.716 0.541,-4.928 2.088,-6.481c1.546,-1.55 3.75,-2.09 6.461,-2.09l160.321,0c5.672,0 9.954,2.314 12.79,7.05l215.513,361.736c0.067,0.105 0.133,0.206 0.2,0.308c3.8,5.714 8.366,6.684 12.166,5.732c3.85,-0.963 7.709,-4.247 7.709,-11.957l-1.056,-354.301Z" style="fill:#555;"/><path d="M6983.81,1287.92c4.956,-0 8.848,1.419 11.675,4.258c2.836,2.835 4.25,6.735 4.25,11.703l-0,140.443c-0,4.964 -1.414,8.864 -4.25,11.703c-2.827,2.835 -6.719,4.255 -11.675,4.255l-178.367,-0c-3.542,-0 -5.305,1.774 -5.305,5.319l-0,551.131c-0,4.968 -1.422,8.868 -4.25,11.707c-2.835,2.835 -6.727,4.255 -11.675,4.255l-167.756,-0c-4.956,-0 -8.848,-1.42 -11.675,-4.255c-2.836,-2.839 -4.249,-6.739 -4.249,-11.707l-0,-551.131c-0,-3.545 -1.772,-5.319 -5.306,-5.319l-173.061,-0c-4.956,-0 -8.848,-1.42 -11.675,-4.255c-2.836,-2.839 -4.25,-6.739 -4.25,-11.703l0,-140.443c0,-4.968 1.414,-8.868 4.25,-11.703c2.827,-2.839 6.719,-4.258 11.675,-4.258l561.644,-0Zm-0,7.39c2.711,0 4.915,0.54 6.47,2.09c1.546,1.553 2.087,3.765 2.087,6.481l-0,140.443c-0,2.712 -0.541,4.928 -2.087,6.478c-1.555,1.55 -3.759,2.093 -6.47,2.093l-178.367,-0c-4.149,-0 -7.118,1.416 -9.197,3.494c-2.071,2.075 -3.484,5.059 -3.484,9.212l-0,551.131c-0,2.716 -0.541,4.928 -2.088,6.482c-1.546,1.55 -3.758,2.089 -6.461,2.089l-167.756,0c-2.711,0 -4.914,-0.539 -6.461,-2.089c-1.547,-1.554 -2.087,-3.766 -2.087,-6.482l-0,-551.131c-0,-4.153 -1.414,-7.137 -3.493,-9.212c-2.071,-2.078 -5.048,-3.494 -9.189,-3.494l-173.061,-0c-2.711,-0 -4.915,-0.543 -6.461,-2.093c-1.555,-1.55 -2.088,-3.766 -2.088,-6.478l0,-140.443c0,-2.716 0.533,-4.928 2.088,-6.481c1.546,-1.55 3.75,-2.09 6.461,-2.09l561.644,0Z" style="fill:#555;"/><path d="M7436.1,1303.88c0,-4.968 1.414,-8.868 4.25,-11.703c2.827,-2.839 6.719,-4.258 11.675,-4.258l167.748,-0c4.956,-0 8.848,1.419 11.683,4.258c2.828,2.835 4.241,6.735 4.241,11.703l0,712.851c0,4.968 -1.413,8.868 -4.241,11.707c-2.835,2.835 -6.727,4.255 -11.683,4.255l-167.748,-0c-4.956,-0 -8.848,-1.42 -11.675,-4.255c-2.836,-2.839 -4.25,-6.739 -4.25,-11.707l0,-270.246c0,-3.545 -1.771,-5.319 -5.313,-5.319l-165.627,-0c-3.534,-0 -5.306,1.774 -5.306,5.319l0,270.246c0,4.968 -1.413,8.868 -4.249,11.707c-2.827,2.835 -6.719,4.255 -11.675,4.255l-167.748,-0c-4.956,-0 -8.848,-1.42 -11.683,-4.255c-2.828,-2.839 -4.241,-6.739 -4.241,-11.707l-0,-712.851c-0,-4.968 1.413,-8.868 4.241,-11.703c2.835,-2.839 6.727,-4.258 11.683,-4.258l167.748,-0c4.956,-0 8.848,1.419 11.675,4.258c2.836,2.835 4.249,6.735 4.249,11.703l0,260.669c0,3.548 1.772,5.319 5.306,5.319l165.627,0c3.542,0 5.313,-1.771 5.313,-5.319l0,-260.669Zm7.368,0c0,-2.716 0.541,-4.928 2.088,-6.481c1.555,-1.55 3.758,-2.09 6.469,-2.09l167.748,0c2.711,0 4.923,0.54 6.469,2.09c1.547,1.553 2.088,3.765 2.088,6.481l-0,712.851c-0,2.716 -0.541,4.928 -2.088,6.482c-1.546,1.55 -3.758,2.089 -6.469,2.089l-167.748,0c-2.711,0 -4.914,-0.539 -6.469,-2.089c-1.547,-1.554 -2.088,-3.766 -2.088,-6.482l0,-270.246c0,-4.154 -1.413,-7.134 -3.484,-9.212c-2.071,-2.079 -5.048,-3.494 -9.197,-3.494l-165.627,-0c-4.141,-0 -7.118,1.415 -9.189,3.494c-2.079,2.078 -3.493,5.058 -3.493,9.212l0,270.246c0,2.716 -0.532,4.928 -2.087,6.482c-1.547,1.55 -3.75,2.089 -6.461,2.089l-167.748,0c-2.711,0 -4.923,-0.539 -6.469,-2.089c-1.547,-1.554 -2.088,-3.766 -2.088,-6.482l0,-712.851c0,-2.716 0.541,-4.928 2.088,-6.481c1.546,-1.55 3.758,-2.09 6.469,-2.09l167.748,0c2.711,0 4.914,0.54 6.461,2.09c1.555,1.553 2.087,3.765 2.087,6.481l0,260.669c0,4.157 1.414,7.137 3.493,9.215c2.071,2.079 5.048,3.495 9.189,3.495l165.627,-0c4.149,-0 7.126,-1.416 9.197,-3.495c2.071,-2.078 3.484,-5.058 3.484,-9.215l0,-260.669Z" style="fill:#555;"/></g><g id="Main1" serif:id="Main"><path d="M3124.62,1230c0,-4.968 1.414,-8.868 4.25,-11.703c2.827,-2.839 6.719,-4.258 11.675,-4.258l167.747,-0c4.957,-0 8.848,1.419 11.684,4.258c2.827,2.835 4.241,6.735 4.241,11.703l0,712.851c0,4.968 -1.414,8.868 -4.241,11.707c-2.836,2.835 -6.727,4.254 -11.684,4.254l-167.747,0c-4.956,0 -8.848,-1.419 -11.675,-4.254c-2.836,-2.839 -4.25,-6.739 -4.25,-11.707l0,-270.246c0,-3.545 -1.771,-5.32 -5.314,-5.32l-165.626,0c-3.535,0 -5.306,1.775 -5.306,5.32l0,270.246c0,4.968 -1.413,8.868 -4.249,11.707c-2.828,2.835 -6.719,4.254 -11.676,4.254l-167.747,0c-4.956,0 -8.848,-1.419 -11.684,-4.254c-2.827,-2.839 -4.241,-6.739 -4.241,-11.707l0,-712.851c0,-4.968 1.414,-8.868 4.241,-11.703c2.836,-2.839 6.728,-4.258 11.684,-4.258l167.747,-0c4.957,-0 8.848,1.419 11.676,4.258c2.836,2.835 4.249,6.735 4.249,11.703l0,260.669c0,3.548 1.771,5.319 5.306,5.319l165.626,-0c3.543,-0 5.314,-1.771 5.314,-5.319l0,-260.669Z" style="fill-rule:nonzero;"/><path d="M3617.25,1956.68c-4.956,0 -8.848,-1.419 -11.675,-4.254c-2.836,-2.839 -4.25,-6.739 -4.25,-11.704l0,-235.136l-1.064,-6.384l-216.587,-466.015l-2.12,-8.513c-0,-7.09 4.599,-10.638 13.796,-10.638l182.616,-0c9.206,-0 15.575,4.258 19.11,12.767l100.863,254.289c2.128,4.964 4.249,4.964 6.37,-0l100.862,-254.289c3.543,-8.509 9.913,-12.767 19.11,-12.767l183.681,-0c9.197,-0 13.804,3.548 13.804,10.638l-2.129,8.513l-218.707,466.015c-0.715,1.419 -1.064,3.549 -1.064,6.384l-0,235.136c-0,4.965 -1.414,8.865 -4.249,11.704c-2.828,2.835 -6.72,4.254 -11.676,4.254l-166.691,0Z" style="fill-rule:nonzero;"/><path d="M4422.02,1958.81c-9.904,0 -15.925,-4.609 -18.045,-13.832l-23.359,-82.987c-1.414,-2.839 -3.185,-4.259 -5.306,-4.259l-225.085,0c-2.12,0 -3.892,1.42 -5.305,4.259l-23.36,82.987c-2.12,9.223 -8.141,13.832 -18.053,13.832l-181.552,0c-12.74,0 -17.338,-6.029 -13.796,-18.087l224.021,-713.919c2.827,-8.509 8.848,-12.767 18.045,-12.767l225.085,-0c9.197,-0 15.218,4.258 18.046,12.767l224.02,713.919c0.707,1.42 1.065,3.545 1.065,6.384c-0,7.8 -4.957,11.703 -14.869,11.703l-181.552,0Zm-230.39,-260.672c-0.707,4.259 0.707,6.384 4.249,6.384l132.713,0c4.249,0 5.663,-2.125 4.249,-6.384l-67.949,-238.326c-0.706,-2.126 -1.771,-3.19 -3.185,-3.19c-1.413,-0 -2.478,1.064 -3.185,3.19l-66.892,238.326Z" style="fill-rule:nonzero;"/><path d="M4936.96,1967.32c-58.045,-0 -109.179,-11.348 -153.419,-34.045c-44.24,-22.697 -78.568,-54.794 -102.983,-96.288c-24.424,-41.497 -36.632,-89.552 -36.632,-144.168l0,-214.92c0,-53.907 12.208,-101.429 36.632,-142.572c24.415,-41.139 58.743,-73.058 102.983,-95.755c44.24,-22.697 95.374,-34.045 153.419,-34.045c58.036,0 109.179,10.639 153.419,31.916c44.232,21.281 78.56,51.249 102.984,89.907c24.415,38.655 36.631,94.158 36.631,145.229c-0,6.384 -5.314,10.284 -15.925,11.704l-170.941,-0c-8.49,-0 -12.739,-3.9 -12.739,-11.704c-0,-29.08 -8.491,-52.309 -25.48,-69.69c-16.989,-17.378 -39.642,-26.065 -67.949,-26.065c-28.315,0 -50.959,8.687 -67.949,26.065c-16.989,17.381 -25.479,40.61 -25.479,69.69l-0,228.753c-0,28.371 8.49,51.245 25.479,68.626c16.99,17.378 39.634,26.065 67.949,26.065c28.307,-0 50.96,-8.687 67.949,-26.065c16.989,-17.381 25.48,-40.255 25.48,-68.626c-0,-4.258 1.413,-7.448 4.249,-9.578c2.827,-2.125 6.719,-2.835 11.675,-2.125l170.059,-0c10.62,0.71 15.925,4.255 15.925,10.638c0,51.072 -14.519,104.623 -38.934,143.637c-24.424,39.009 -58.752,69.332 -102.984,90.968c-44.24,21.632 -95.383,32.448 -153.419,32.448Z" style="fill-rule:nonzero;"/><path d="M5315.98,1958.81c-4.956,0 -8.848,-1.419 -11.675,-4.254c-2.836,-2.839 -4.25,-6.739 -4.25,-11.707l0,-712.851c0,-4.968 1.414,-8.868 4.25,-11.703c2.827,-2.839 6.719,-4.258 11.675,-4.258l167.756,-0c4.947,-0 8.839,1.419 11.675,4.258c2.827,2.835 4.249,6.735 4.249,11.703l0,712.851c0,4.968 -1.422,8.868 -4.249,11.707c-2.836,2.835 -6.728,4.254 -11.675,4.254l-167.756,0Z" style="fill-rule:nonzero;"/><path d="M5998.67,1230c0,-4.968 1.414,-8.868 4.249,-11.703c2.828,-2.839 6.72,-4.258 11.676,-4.258l167.747,-0c4.956,-0 8.848,1.419 11.684,4.258c2.827,2.835 4.249,6.735 4.249,11.703l0,712.851c0,4.968 -1.422,8.868 -4.249,11.707c-2.836,2.835 -6.728,4.254 -11.684,4.254l-160.313,0c-8.499,0 -14.868,-3.548 -19.11,-10.638l-216.594,-361.747c-1.414,-2.129 -2.827,-3.016 -4.241,-2.661c-1.422,0.355 -2.129,1.952 -2.129,4.787l2.129,354.298c-0,4.968 -1.422,8.868 -4.25,11.707c-2.827,2.835 -6.727,4.254 -11.675,4.254l-167.756,0c-4.956,0 -8.848,-1.419 -11.675,-4.254c-2.836,-2.839 -4.249,-6.739 -4.249,-11.707l-0,-712.851c-0,-4.968 1.413,-8.868 4.249,-11.703c2.827,-2.839 6.719,-4.258 11.675,-4.258l160.322,-0c8.49,-0 14.86,3.548 19.109,10.638l215.531,361.75c1.413,2.126 2.827,3.013 4.241,2.658c1.422,-0.355 2.128,-1.952 2.128,-4.787l-1.064,-354.298Z" style="fill-rule:nonzero;"/><path d="M6836.35,1214.04c4.957,-0 8.849,1.419 11.676,4.258c2.836,2.835 4.249,6.735 4.249,11.703l0,140.443c0,4.964 -1.413,8.864 -4.249,11.703c-2.827,2.835 -6.719,4.254 -11.676,4.254l-178.366,0c-3.543,0 -5.306,1.775 -5.306,5.32l0,551.131c0,4.968 -1.422,8.868 -4.249,11.707c-2.836,2.835 -6.728,4.254 -11.675,4.254l-167.756,0c-4.956,0 -8.848,-1.419 -11.675,-4.254c-2.836,-2.839 -4.25,-6.739 -4.25,-11.707l0,-551.131c0,-3.545 -1.771,-5.32 -5.305,-5.32l-173.061,0c-4.957,0 -8.848,-1.419 -11.676,-4.254c-2.836,-2.839 -4.249,-6.739 -4.249,-11.703l-0,-140.443c-0,-4.968 1.413,-8.868 4.249,-11.703c2.828,-2.839 6.719,-4.258 11.676,-4.258l561.643,-0Z" style="fill-rule:nonzero;"/><path d="M7288.65,1230c0,-4.968 1.414,-8.868 4.249,-11.703c2.828,-2.839 6.72,-4.258 11.676,-4.258l167.747,-0c4.956,-0 8.848,1.419 11.684,4.258c2.827,2.835 4.241,6.735 4.241,11.703l-0,712.851c-0,4.968 -1.414,8.868 -4.241,11.707c-2.836,2.835 -6.728,4.254 -11.684,4.254l-167.747,0c-4.956,0 -8.848,-1.419 -11.676,-4.254c-2.835,-2.839 -4.249,-6.739 -4.249,-11.707l0,-270.246c0,-3.545 -1.771,-5.32 -5.314,-5.32l-165.627,0c-3.534,0 -5.305,1.775 -5.305,5.32l-0,270.246c-0,4.968 -1.414,8.868 -4.249,11.707c-2.828,2.835 -6.72,4.254 -11.676,4.254l-167.747,0c-4.956,0 -8.848,-1.419 -11.684,-4.254c-2.827,-2.839 -4.241,-6.739 -4.241,-11.707l0,-712.851c0,-4.968 1.414,-8.868 4.241,-11.703c2.836,-2.839 6.728,-4.258 11.684,-4.258l167.747,-0c4.956,-0 8.848,1.419 11.676,4.258c2.835,2.835 4.249,6.735 4.249,11.703l-0,260.669c-0,3.548 1.771,5.319 5.305,5.319l165.627,-0c3.543,-0 5.314,-1.771 5.314,-5.319l0,-260.669Z" style="fill-rule:nonzero;"/></g></g><rect x="0" y="-0" width="8000" height="3166.67" style="fill:none;stroke:#aaa;stroke-opacity:0;stroke-width:8.33px;"/></svg>