<?xml version="1.0" encoding="UTF-8" standalone="no"?><!DOCTYPE svg PUBLIC "-//W3C//DTD SVG 1.1//EN" "http://www.w3.org/Graphics/SVG/1.1/DTD/svg11.dtd"><svg width="100%" height="100%" viewBox="0 0 8000 1322" version="1.1" xmlns="http://www.w3.org/2000/svg" xmlns:xlink="http://www.w3.org/1999/xlink" xml:space="preserve" xmlns:serif="http://www.serif.com/" style="fill-rule:evenodd;clip-rule:evenodd;stroke-linecap:round;stroke-linejoin:round;stroke-miterlimit:1.5;"><rect id="Charcoal-logo" serif:id="Charcoal logo" x="0" y="0" width="8000" height="1321.88" style="fill:#1a1a1a;"/><g id="Flower"><path id="Stem" d="M2687.82,680.363c-200.022,60.142 -0,440.688 -0,566.403" style="fill:none;stroke:#74b652;stroke-width:41.67px;"/><g id="Petals"><g><path d="M2267.99,881.826c-3.714,1.893 -6.075,5.744 -6.075,9.938l-0,126.767c-0,6.152 4.98,11.143 11.141,11.143l126.503,0c4.186,0 8.007,-2.345 9.917,-6.088c8.952,-17.596 36.064,-70.858 64.615,-126.981c11.613,-22.824 7.234,-50.552 -10.862,-68.665c-18.075,-18.112 -45.724,-22.501 -68.522,-10.863c-55.985,28.61 -109.157,55.779 -126.717,64.749Z" style="fill:#7b52ae;"/></g><g><path d="M3048.84,382.91c3.713,-1.893 6.075,-5.744 6.075,-9.938l-0,-126.767c-0,-6.152 -4.98,-11.143 -11.141,-11.143l-126.503,-0c-4.186,-0 -8.007,2.345 -9.918,6.088c-8.951,17.596 -36.064,70.858 -64.614,126.981c-11.614,22.824 -7.235,50.552 10.862,68.665c18.075,18.112 45.724,22.501 68.521,10.863c55.985,-28.61 109.158,-55.779 126.718,-64.749Z" style="fill:#7b52ae;"/></g><g><path d="M2758.45,179.34c1.29,-3.97 0.243,-8.366 -2.717,-11.332c-16.272,-16.306 -69.293,-69.438 -89.451,-89.638c-4.341,-4.35 -11.384,-4.35 -15.741,0.015l-89.451,89.638c-2.96,2.966 -4.007,7.332 -2.717,11.332c6.087,18.786 24.5,75.659 43.914,135.574c7.893,24.368 30.555,40.872 56.132,40.857c25.562,-0 48.209,-16.489 56.118,-40.872c19.399,-59.9 37.826,-116.789 43.913,-135.574Z" style="fill:#7b52ae;"/></g><g><path d="M3110.52,732.61c3.961,1.293 8.348,0.244 11.308,-2.723c16.272,-16.306 69.293,-69.437 89.451,-89.637c4.341,-4.35 4.341,-11.408 -0.015,-15.774c-20.143,-20.185 -73.179,-73.331 -89.451,-89.637c-2.96,-2.967 -7.317,-4.016 -11.309,-2.723c-18.746,6.099 -75.501,24.55 -135.292,44.005c-24.317,7.91 -40.786,30.619 -40.771,56.25c-0,25.615 16.454,48.309 40.786,56.234c59.776,19.44 116.546,37.906 135.293,44.005Z" style="fill:#7b52ae;"/></g><g><path d="M2206.34,532.126c-3.962,-1.293 -8.349,-0.244 -11.309,2.723c-16.272,16.306 -69.293,69.437 -89.451,89.637c-4.341,4.35 -4.341,11.408 0.015,15.774l89.451,89.637c2.96,2.967 7.317,4.016 11.309,2.723c18.746,-6.099 75.501,-24.55 135.292,-44.005c24.317,-7.91 40.787,-30.619 40.771,-56.25c0,-25.615 -16.454,-48.309 -40.786,-56.234c-59.776,-19.44 -116.546,-37.906 -135.292,-44.005Z" style="fill:#7b52ae;"/></g><g><path d="M2907.37,1023.62c1.889,3.722 5.732,6.088 9.918,6.088l126.503,0c6.139,0 11.119,-4.991 11.119,-11.164l0,-126.767c0,-4.195 -2.34,-8.024 -6.075,-9.938c-17.56,-8.971 -70.711,-36.14 -126.717,-64.75c-22.776,-11.637 -50.447,-7.249 -68.522,10.885c-18.075,18.113 -22.454,45.819 -10.84,68.664c28.55,56.102 55.663,109.386 64.614,126.982Z" style="fill:#7b52ae;"/></g><g><path d="M2407.73,239.368c-1.889,-3.722 -5.732,-6.088 -9.918,-6.088l-126.503,0c-6.139,0 -11.119,4.991 -11.119,11.165l-0,126.766c-0,4.195 2.339,8.024 6.075,9.939c17.559,8.97 70.711,36.139 126.717,64.749c22.776,11.638 50.447,7.249 68.522,-10.885c18.074,-18.113 22.454,-45.819 10.84,-68.664c-28.55,-56.102 -55.663,-109.386 -64.614,-126.982Z" style="fill:#7b52ae;"/></g></g></g><g id="Bots"><g id="Shadow" transform="matrix(0.997918,0,0,1,-1062.03,-2.91038e-11)"><text x="6278.43px" y="1201.15px" style="font-family:'MS-PGothic', 'MS PGothic', sans-serif;font-size:279.63px;fill:#aaa;fill-opacity:0;stroke:#aaa;stroke-width:0.54px;stroke-linecap:butt;stroke-miterlimit:2;">BOTS</text></g><g id="Main" transform="matrix(0.997918,0,0,1,-139.595,0)"><text x="5328.6px" y="1181.02px" style="font-family:'MS-PGothic', 'MS PGothic', sans-serif;font-size:279.434px;fill:#fff;">BOTS</text></g></g><g id="Hyacinth"><g id="Shadow1" serif:id="Shadow"><path d="M3613.71,573.394c0,-2.587 0.736,-4.618 2.213,-6.095c1.473,-1.479 3.5,-2.218 6.081,-2.218l87.369,0c2.581,0 4.608,0.739 6.085,2.218c1.473,1.477 2.209,3.508 2.209,6.095l0,371.265c0,2.588 -0.736,4.619 -2.209,6.097c-1.477,1.477 -3.504,2.216 -6.085,2.216l-87.369,0c-2.581,0 -4.608,-0.739 -6.081,-2.216c-1.477,-1.478 -2.213,-3.509 -2.213,-6.097l0,-140.749c0,-1.846 -0.922,-2.77 -2.768,-2.77l-86.264,-0c-1.84,-0 -2.763,0.924 -2.763,2.77l-0,140.749c-0,2.588 -0.736,4.619 -2.213,6.097c-1.473,1.477 -3.5,2.216 -6.081,2.216l-87.369,0c-2.581,0 -4.608,-0.739 -6.085,-2.216c-1.473,-1.478 -2.209,-3.509 -2.209,-6.097l-0,-371.265c-0,-2.587 0.736,-4.618 2.209,-6.095c1.477,-1.479 3.504,-2.218 6.085,-2.218l87.369,0c2.581,0 4.608,0.739 6.081,2.218c1.477,1.477 2.213,3.508 2.213,6.095l-0,135.761c-0,1.848 0.923,2.77 2.763,2.77l86.264,0c1.846,0 2.768,-0.922 2.768,-2.77l0,-135.761Zm3.838,0c-0,-1.414 0.281,-2.567 1.087,-3.376c0.81,-0.807 1.957,-1.088 3.369,-1.088l87.369,0c1.412,0 2.564,0.281 3.37,1.088c0.805,0.809 1.087,1.962 1.087,3.376l-0,371.265c-0,1.415 -0.282,2.567 -1.087,3.376c-0.806,0.807 -1.958,1.088 -3.37,1.088l-87.369,0c-1.412,0 -2.559,-0.281 -3.369,-1.088c-0.806,-0.809 -1.087,-1.961 -1.087,-3.376l-0,-140.749c-0,-2.163 -0.737,-3.715 -1.815,-4.797c-1.079,-1.083 -2.629,-1.82 -4.791,-1.82l-86.264,-0c-2.157,-0 -3.707,0.737 -4.786,1.82c-1.082,1.082 -1.819,2.634 -1.819,4.797l0,140.749c0,1.415 -0.277,2.567 -1.087,3.376c-0.806,0.807 -1.953,1.088 -3.365,1.088l-87.369,0c-1.412,0 -2.564,-0.281 -3.37,-1.088c-0.805,-0.809 -1.087,-1.961 -1.087,-3.376l0,-371.265c0,-1.414 0.282,-2.567 1.087,-3.376c0.806,-0.807 1.958,-1.088 3.37,-1.088l87.369,0c1.412,0 2.559,0.281 3.365,1.088c0.81,0.809 1.087,1.962 1.087,3.376l0,135.761c0,2.165 0.737,3.717 1.819,4.8c1.079,1.082 2.629,1.819 4.786,1.819l86.264,0c2.162,0 3.712,-0.737 4.791,-1.819c1.078,-1.083 1.815,-2.635 1.815,-4.8l-0,-135.761Z" style="fill:#aaa;"/><path d="M3870.29,951.863c-2.581,0 -4.608,-0.739 -6.081,-2.215c-1.477,-1.479 -2.213,-3.51 -2.213,-6.096l0,-122.463l-0.554,-3.325l-112.806,-242.708l-1.104,-4.434c-0,-3.693 2.395,-5.541 7.185,-5.541l95.113,0c4.794,0 8.112,2.218 9.953,6.65l52.533,132.438c1.109,2.585 2.213,2.585 3.318,-0l52.532,-132.438c1.846,-4.432 5.163,-6.65 9.953,-6.65l95.668,0c4.79,0 7.189,1.848 7.189,5.541l-1.108,4.434l-113.91,242.708c-0.373,0.74 -0.555,1.848 -0.555,3.325l0,122.463c0,2.586 -0.736,4.617 -2.213,6.096c-1.473,1.476 -3.5,2.215 -6.081,2.215l-86.819,0Zm0,-3.847c-1.412,0 -2.559,-0.283 -3.365,-1.09c-0.806,-0.807 -1.087,-1.961 -1.087,-3.374l-0,-122.463c-0,-0.211 -0.017,-0.422 -0.052,-0.632l-0.554,-3.325c-0.057,-0.343 -0.161,-0.677 -0.308,-0.992l-112.65,-242.374l-0.875,-3.501c0.208,-1.197 1.508,-1.335 3.318,-1.335l95.113,0c3.079,0 5.215,1.42 6.401,4.26l52.516,132.399c0.013,0.032 0.026,0.064 0.039,0.094c1.46,3.408 3.733,4.273 5.189,4.273c1.459,0 3.733,-0.865 5.188,-4.273c0.013,-0.03 0.026,-0.062 0.039,-0.094l52.52,-132.399c1.187,-2.84 3.322,-4.26 6.397,-4.26l95.668,0c1.814,0 3.109,0.138 3.317,1.332c0,0.003 -0.87,3.496 -0.87,3.496l-113.746,242.354c-0.545,1.126 -0.927,2.771 -0.927,4.977l0,122.463c0,1.413 -0.281,2.567 -1.087,3.374c-0.805,0.807 -1.953,1.09 -3.365,1.09l-86.819,0Z" style="fill:#aaa;"/><path d="M4289.45,952.972c-5.158,0 -8.294,-2.4 -9.399,-7.204l-12.166,-43.221c-0.736,-1.479 -1.659,-2.218 -2.763,-2.218l-117.232,0c-1.105,0 -2.027,0.739 -2.764,2.218l-12.166,43.221c-1.104,4.804 -4.24,7.204 -9.403,7.204l-94.558,0c-6.636,0 -9.031,-3.14 -7.186,-9.42l116.678,-371.821c1.472,-4.432 4.608,-6.65 9.399,-6.65l117.232,0c4.79,0 7.926,2.218 9.398,6.65l116.678,371.821c0.368,0.74 0.554,1.847 0.554,3.325c0,4.062 -2.581,6.095 -7.744,6.095l-94.558,0Zm-0,-3.849c-1.598,0 -2.915,-0.264 -3.885,-1.009c-0.918,-0.701 -1.447,-1.806 -1.772,-3.211c-0.013,-0.061 -0.03,-0.119 -0.047,-0.18l-12.167,-43.221c-0.064,-0.234 -0.151,-0.46 -0.259,-0.677c-1.577,-3.157 -3.838,-4.343 -6.198,-4.343l-117.232,-0c-2.361,-0 -4.626,1.186 -6.198,4.343c-0.109,0.217 -0.195,0.443 -0.265,0.677l-12.162,43.221c-0.017,0.061 -0.034,0.119 -0.047,0.18c-0.325,1.405 -0.853,2.51 -1.772,3.211c-0.97,0.745 -2.286,1.009 -3.889,1.009l-94.558,0c-0.966,0 -1.807,-0.075 -2.526,-0.258c-0.515,-0.13 -0.948,-0.26 -1.195,-0.585c-0.238,-0.307 -0.238,-0.731 -0.225,-1.224c0.022,-0.711 0.177,-1.505 0.433,-2.391l116.652,-371.739c0.905,-2.689 2.837,-3.996 5.752,-3.996l117.232,0c2.897,0 4.829,1.294 5.734,3.955c0.013,0.041 116.678,371.821 116.678,371.821c0.065,0.195 0.139,0.385 0.229,0.566c0.178,0.355 0.148,0.898 0.148,1.605c-0,0.575 -0.035,1.066 -0.325,1.411c-0.663,0.782 -1.919,0.835 -3.578,0.835l-94.558,0Zm-123.69,-132.954c-0.039,0.134 -0.069,0.271 -0.091,0.409c-0.394,2.355 0.087,4.083 0.866,5.26c1.005,1.507 2.625,2.546 5.133,2.546l69.121,-0c2.798,-0 4.474,-1.145 5.41,-2.546c0.857,-1.288 1.303,-3.201 0.472,-5.765c0.004,0.013 -35.369,-124.044 -35.369,-124.044c-0.013,-0.055 -0.03,-0.108 -0.047,-0.16c-1.07,-3.221 -3.162,-4.295 -5.302,-4.295c-2.144,0 -4.231,1.074 -5.301,4.295c-0.022,0.058 -0.039,0.117 -0.056,0.175l-34.836,124.125Zm3.695,1.041c-0.369,2.218 0.368,3.325 2.213,3.325l69.121,-0c2.213,-0 2.95,-1.107 2.213,-3.325l-35.39,-124.125c-0.368,-1.107 -0.922,-1.661 -1.659,-1.661c-0.736,-0 -1.29,0.554 -1.658,1.661l-34.84,124.125Z" style="fill:#aaa;"/><path d="M4557.64,957.404c-30.231,0 -56.864,-5.91 -79.906,-17.731c-23.041,-11.821 -40.921,-28.538 -53.637,-50.148c-12.721,-21.613 -19.079,-46.64 -19.079,-75.086l0,-111.934c0,-28.075 6.358,-52.826 19.079,-74.254c12.716,-21.425 30.596,-38.05 53.637,-49.871c23.042,-11.82 49.675,-17.731 79.906,-17.731c30.228,0 56.865,5.541 79.906,16.623c23.038,11.083 40.917,26.691 53.638,46.825c12.716,20.132 19.079,49.039 19.079,75.638c-0,3.325 -2.768,5.356 -8.295,6.095l-89.031,0c-4.422,0 -6.636,-2.031 -6.636,-6.095c0,-15.146 -4.422,-27.244 -13.27,-36.296c-8.849,-9.051 -20.647,-13.575 -35.391,-13.575c-14.747,-0 -26.541,4.524 -35.39,13.575c-8.848,9.052 -13.27,21.15 -13.27,36.296l-0,119.138c-0,14.776 4.422,26.689 13.27,35.742c8.849,9.05 20.643,13.575 35.39,13.575c14.744,-0 26.542,-4.525 35.391,-13.575c8.848,-9.053 13.27,-20.966 13.27,-35.742c0,-2.218 0.737,-3.879 2.214,-4.988c1.472,-1.107 3.499,-1.477 6.081,-1.107l88.572,-0c5.531,0.37 8.294,2.216 8.294,5.541c0,26.599 -7.562,54.489 -20.278,74.808c-12.721,20.317 -30.6,36.109 -53.638,47.378c-23.041,11.266 -49.678,16.899 -79.906,16.899Zm56.956,-255.402l-1.659,-0.019c-1.035,-0 -1.863,-0.038 -2.382,-0.513c-0.403,-0.374 -0.412,-0.99 -0.412,-1.735c0,-16.285 -4.855,-29.256 -14.371,-38.988c-9.541,-9.761 -22.227,-14.732 -38.132,-14.732c-15.904,-0 -28.59,4.971 -38.136,14.732c-9.511,9.732 -14.366,22.703 -14.366,38.988l-0,119.138c-0,15.902 4.846,28.692 14.366,38.433c9.546,9.761 22.232,14.733 38.136,14.733c15.905,-0 28.591,-4.972 38.132,-14.733c9.524,-9.741 14.371,-22.531 14.371,-38.433c0,-0.822 0.126,-1.497 0.676,-1.908c0.775,-0.585 1.875,-0.574 3.235,-0.378c0.178,0.025 0.36,0.038 0.542,0.038l88.438,0c1.581,0.113 2.863,0.343 3.82,0.792c0.442,0.208 0.767,0.457 0.767,0.902c-0,25.869 -7.32,53.001 -19.69,72.762c-12.344,19.719 -29.707,35.03 -52.069,45.965c-22.553,11.029 -48.631,16.511 -78.222,16.511c-29.564,0 -55.621,-5.748 -78.156,-17.309c-22.366,-11.477 -39.734,-27.698 -52.082,-48.679c-12.383,-21.045 -18.542,-45.428 -18.542,-73.13l-0,-111.934c-0,-27.328 6.155,-51.428 18.537,-72.285c12.349,-20.805 29.717,-36.937 52.087,-48.415c22.535,-11.56 48.592,-17.309 78.156,-17.309c29.6,0 55.682,5.394 78.243,16.246c22.354,10.751 39.717,25.878 52.057,45.412c12.37,19.582 18.481,47.714 18.481,73.581c-0,0.556 -0.399,0.896 -0.953,1.194c-0.944,0.503 -2.2,0.827 -3.738,1.05c-0.026,0.004 -87.134,0.004 -87.134,0.004l-0,0.019Z" style="fill:#aaa;"/><path d="M4755.05,952.972c-2.581,0 -4.608,-0.739 -6.081,-2.216c-1.476,-1.478 -2.213,-3.509 -2.213,-6.097l0,-371.265c0,-2.587 0.737,-4.618 2.213,-6.095c1.473,-1.479 3.5,-2.218 6.081,-2.218l87.373,0c2.577,0 4.604,0.739 6.081,2.218c1.473,1.477 2.214,3.508 2.214,6.095l-0,371.265c-0,2.588 -0.741,4.619 -2.214,6.097c-1.477,1.477 -3.504,2.216 -6.081,2.216l-87.373,0Zm0,-3.849c-1.412,0 -2.559,-0.281 -3.365,-1.088c-0.805,-0.809 -1.087,-1.961 -1.087,-3.376l0,-371.265c0,-1.414 0.282,-2.567 1.087,-3.376c0.806,-0.807 1.953,-1.088 3.365,-1.088l87.373,0c1.408,0 2.56,0.281 3.366,1.088c0.805,0.809 1.087,1.962 1.087,3.376l-0,371.265c-0,1.415 -0.282,2.567 -1.087,3.376c-0.806,0.807 -1.958,1.088 -3.366,1.088l-87.373,0Z" style="fill:#aaa;"/><path d="M5110.62,573.394c-0,-2.587 0.736,-4.618 2.213,-6.095c1.472,-1.479 3.499,-2.218 6.081,-2.218l87.368,0c2.582,0 4.609,0.739 6.086,2.218c1.472,1.477 2.213,3.508 2.213,6.095l-0,371.265c-0,2.588 -0.741,4.619 -2.213,6.097c-1.477,1.477 -3.504,2.216 -6.086,2.216l-83.496,0c-4.427,0 -7.744,-1.848 -9.953,-5.54l-112.81,-188.404c-0.736,-1.109 -1.473,-1.571 -2.209,-1.386c-0.741,0.184 -1.109,1.016 -1.109,2.493l1.109,184.524c-0,2.588 -0.741,4.619 -2.213,6.097c-1.473,1.477 -3.504,2.216 -6.081,2.216l-87.373,0c-2.582,0 -4.609,-0.739 -6.081,-2.216c-1.477,-1.478 -2.213,-3.509 -2.213,-6.097l-0,-371.265c-0,-2.587 0.736,-4.618 2.213,-6.095c1.472,-1.479 3.499,-2.218 6.081,-2.218l83.501,0c4.422,0 7.739,1.848 9.953,5.541l112.255,188.406c0.737,1.107 1.473,1.569 2.209,1.384c0.741,-0.185 1.109,-1.017 1.109,-2.493l-0.554,-184.525Zm3.841,-0.002c0,-1.414 0.282,-2.565 1.087,-3.374c0.806,-0.807 1.954,-1.088 3.366,-1.088l87.368,0c1.412,0 2.565,0.281 3.37,1.088c0.806,0.809 1.087,1.962 1.087,3.376l0,371.265c0,1.415 -0.281,2.567 -1.087,3.376c-0.805,0.807 -1.958,1.088 -3.37,1.088l-83.496,0c-2.954,0 -5.185,-1.205 -6.661,-3.672l-112.806,-188.404c-0.035,-0.052 -0.065,-0.103 -0.1,-0.154c-1.979,-2.976 -4.357,-3.482 -6.336,-2.986c-2.006,0.504 -4.015,2.215 -4.015,6.228l1.104,184.53c0,1.413 -0.281,2.563 -1.087,3.37c-0.806,0.807 -1.958,1.088 -3.365,1.088l-87.373,0c-1.412,0 -2.56,-0.281 -3.366,-1.088c-0.805,-0.809 -1.087,-1.961 -1.087,-3.376l0,-371.265c0,-1.414 0.282,-2.567 1.087,-3.376c0.806,-0.807 1.954,-1.088 3.366,-1.088l83.501,0c2.954,0 5.184,1.205 6.661,3.672l112.247,188.398c0.035,0.055 0.069,0.108 0.104,0.161c1.979,2.976 4.357,3.481 6.336,2.985c2.006,-0.502 4.015,-2.212 4.015,-6.227l-0.55,-184.527Z" style="fill:#aaa;"/><path d="M5546.91,565.081c2.581,0 4.608,0.739 6.081,2.218c1.477,1.477 2.213,3.508 2.213,6.095l0,73.145c0,2.586 -0.736,4.617 -2.213,6.095c-1.473,1.477 -3.5,2.216 -6.081,2.216l-92.9,0c-1.845,0 -2.763,0.924 -2.763,2.771l0,287.038c0,2.588 -0.74,4.619 -2.213,6.097c-1.477,1.477 -3.504,2.216 -6.081,2.216l-87.373,0c-2.581,0 -4.608,-0.739 -6.081,-2.216c-1.477,-1.478 -2.213,-3.509 -2.213,-6.097l-0,-287.038c-0,-1.847 -0.923,-2.771 -2.764,-2.771l-90.136,0c-2.581,0 -4.608,-0.739 -6.081,-2.216c-1.477,-1.478 -2.213,-3.509 -2.213,-6.095l0,-73.145c0,-2.587 0.736,-4.618 2.213,-6.095c1.473,-1.479 3.5,-2.218 6.081,-2.218l292.524,0Zm0,3.849c1.412,0 2.56,0.281 3.37,1.088c0.805,0.809 1.087,1.962 1.087,3.376l-0,73.145c-0,1.413 -0.282,2.567 -1.087,3.374c-0.81,0.807 -1.958,1.09 -3.37,1.09l-92.9,-0c-2.161,-0 -3.707,0.737 -4.79,1.82c-1.078,1.08 -1.815,2.634 -1.815,4.798l0,287.038c0,1.415 -0.281,2.567 -1.087,3.376c-0.805,0.807 -1.957,1.088 -3.365,1.088l-87.373,0c-1.412,0 -2.56,-0.281 -3.365,-1.088c-0.806,-0.809 -1.087,-1.961 -1.087,-3.376l-0,-287.038c-0,-2.164 -0.737,-3.718 -1.82,-4.798c-1.078,-1.083 -2.629,-1.82 -4.786,-1.82l-90.136,-0c-1.412,-0 -2.559,-0.283 -3.365,-1.09c-0.81,-0.807 -1.087,-1.961 -1.087,-3.374l-0,-73.145c-0,-1.414 0.277,-2.567 1.087,-3.376c0.806,-0.807 1.953,-1.088 3.365,-1.088l292.524,0Z" style="fill:#aaa;"/><path d="M5782.48,573.394c-0,-2.587 0.736,-4.618 2.213,-6.095c1.473,-1.479 3.5,-2.218 6.081,-2.218l87.369,0c2.581,0 4.608,0.739 6.085,2.218c1.472,1.477 2.209,3.508 2.209,6.095l-0,371.265c-0,2.588 -0.737,4.619 -2.209,6.097c-1.477,1.477 -3.504,2.216 -6.085,2.216l-87.369,0c-2.581,0 -4.608,-0.739 -6.081,-2.216c-1.477,-1.478 -2.213,-3.509 -2.213,-6.097l-0,-140.749c-0,-1.846 -0.923,-2.77 -2.768,-2.77l-86.264,-0c-1.841,-0 -2.763,0.924 -2.763,2.77l-0,140.749c-0,2.588 -0.737,4.619 -2.214,6.097c-1.472,1.477 -3.499,2.216 -6.081,2.216l-87.368,0c-2.582,0 -4.609,-0.739 -6.086,-2.216c-1.472,-1.478 -2.208,-3.509 -2.208,-6.097l-0,-371.265c-0,-2.587 0.736,-4.618 2.208,-6.095c1.477,-1.479 3.504,-2.218 6.086,-2.218l87.368,0c2.582,0 4.609,0.739 6.081,2.218c1.477,1.477 2.214,3.508 2.214,6.095l-0,135.761c-0,1.848 0.922,2.77 2.763,2.77l86.264,0c1.845,0 2.768,-0.922 2.768,-2.77l-0,-135.761Zm3.837,0c0,-1.414 0.282,-2.567 1.087,-3.376c0.81,-0.807 1.958,-1.088 3.37,-1.088l87.369,0c1.412,0 2.564,0.281 3.369,1.088c0.806,0.809 1.087,1.962 1.087,3.376l0,371.265c0,1.415 -0.281,2.567 -1.087,3.376c-0.805,0.807 -1.957,1.088 -3.369,1.088l-87.369,0c-1.412,0 -2.56,-0.281 -3.37,-1.088c-0.805,-0.809 -1.087,-1.961 -1.087,-3.376l0,-140.749c0,-2.163 -0.736,-3.715 -1.815,-4.797c-1.078,-1.083 -2.629,-1.82 -4.79,-1.82l-86.264,-0c-2.157,-0 -3.708,0.737 -4.786,1.82c-1.083,1.082 -1.819,2.634 -1.819,4.797l-0,140.749c-0,1.415 -0.277,2.567 -1.087,3.376c-0.806,0.807 -1.954,1.088 -3.366,1.088l-87.368,0c-1.412,0 -2.564,-0.281 -3.37,-1.088c-0.805,-0.809 -1.087,-1.961 -1.087,-3.376l0,-371.265c0,-1.414 0.282,-2.567 1.087,-3.376c0.806,-0.807 1.958,-1.088 3.37,-1.088l87.368,0c1.412,0 2.56,0.281 3.366,1.088c0.81,0.809 1.087,1.962 1.087,3.376l-0,135.761c-0,2.165 0.736,3.717 1.819,4.8c1.078,1.082 2.629,1.819 4.786,1.819l86.264,0c2.161,0 3.712,-0.737 4.79,-1.819c1.079,-1.083 1.815,-2.635 1.815,-4.8l0,-135.761Z" style="fill:#aaa;"/></g><g id="Main1" serif:id="Main"><path d="M3536.91,534.913c0,-2.588 0.736,-4.619 2.213,-6.095c1.473,-1.479 3.5,-2.218 6.081,-2.218l87.369,-0c2.581,-0 4.608,0.739 6.085,2.218c1.473,1.476 2.209,3.507 2.209,6.095l0,371.265c0,2.588 -0.736,4.619 -2.209,6.097c-1.477,1.477 -3.504,2.216 -6.085,2.216l-87.369,0c-2.581,0 -4.608,-0.739 -6.081,-2.216c-1.477,-1.478 -2.213,-3.509 -2.213,-6.097l0,-140.749c0,-1.846 -0.923,-2.77 -2.768,-2.77l-86.264,-0c-1.841,-0 -2.763,0.924 -2.763,2.77l-0,140.749c-0,2.588 -0.736,4.619 -2.213,6.097c-1.473,1.477 -3.5,2.216 -6.081,2.216l-87.369,0c-2.581,0 -4.608,-0.739 -6.085,-2.216c-1.473,-1.478 -2.209,-3.509 -2.209,-6.097l-0,-371.265c-0,-2.588 0.736,-4.619 2.209,-6.095c1.477,-1.479 3.504,-2.218 6.085,-2.218l87.369,-0c2.581,-0 4.608,0.739 6.081,2.218c1.477,1.476 2.213,3.507 2.213,6.095l-0,135.761c-0,1.848 0.922,2.77 2.763,2.77l86.264,0c1.845,0 2.768,-0.922 2.768,-2.77l0,-135.761Z" style="fill:#fff;fill-rule:nonzero;"/><path d="M3793.49,913.382c-2.581,0 -4.608,-0.739 -6.081,-2.216c-1.477,-1.478 -2.213,-3.509 -2.213,-6.095l0,-122.463l-0.554,-3.325l-112.806,-242.709l-1.104,-4.433c-0,-3.693 2.395,-5.541 7.185,-5.541l95.113,-0c4.794,-0 8.112,2.218 9.953,6.65l52.533,132.437c1.109,2.586 2.213,2.586 3.317,0l52.533,-132.437c1.845,-4.432 5.163,-6.65 9.953,-6.65l95.668,-0c4.79,-0 7.189,1.848 7.189,5.541l-1.108,4.433l-113.911,242.709c-0.372,0.739 -0.554,1.848 -0.554,3.325l0,122.463c0,2.586 -0.736,4.617 -2.213,6.095c-1.473,1.477 -3.5,2.216 -6.081,2.216l-86.819,0Z" style="fill:#fff;fill-rule:nonzero;"/><path d="M4212.64,914.491c-5.159,0 -8.294,-2.401 -9.399,-7.204l-12.166,-43.221c-0.736,-1.479 -1.659,-2.218 -2.763,-2.218l-117.232,-0c-1.105,-0 -2.027,0.739 -2.764,2.218l-12.166,43.221c-1.105,4.803 -4.24,7.204 -9.403,7.204l-94.558,0c-6.636,0 -9.031,-3.14 -7.186,-9.42l116.678,-371.821c1.472,-4.432 4.608,-6.65 9.399,-6.65l117.232,-0c4.79,-0 7.926,2.218 9.398,6.65l116.678,371.821c0.368,0.739 0.554,1.846 0.554,3.325c0,4.062 -2.581,6.095 -7.744,6.095l-94.558,0Zm-119.996,-135.762c-0.368,2.217 0.369,3.324 2.214,3.324l69.121,0c2.213,0 2.95,-1.107 2.213,-3.324l-35.39,-124.125c-0.368,-1.107 -0.922,-1.662 -1.659,-1.662c-0.736,0 -1.29,0.555 -1.658,1.662l-34.841,124.125Z" style="fill:#fff;fill-rule:nonzero;"/><path d="M4480.84,918.923c-30.231,0 -56.864,-5.91 -79.906,-17.731c-23.041,-11.821 -40.921,-28.538 -53.637,-50.148c-12.721,-21.613 -19.079,-46.641 -19.079,-75.086l0,-111.934c0,-28.076 6.358,-52.826 19.079,-74.254c12.716,-21.426 30.596,-38.05 53.637,-49.871c23.042,-11.821 49.675,-17.731 79.906,-17.731c30.228,-0 56.865,5.541 79.906,16.622c23.038,11.084 40.917,26.692 53.638,46.826c12.716,20.132 19.079,49.039 19.079,75.638c-0,3.324 -2.768,5.356 -8.295,6.095l-89.031,-0c-4.423,-0 -6.636,-2.031 -6.636,-6.095c0,-15.146 -4.422,-27.244 -13.27,-36.297c-8.849,-9.05 -20.647,-13.574 -35.391,-13.574c-14.747,-0 -26.541,4.524 -35.39,13.574c-8.848,9.053 -13.27,21.151 -13.27,36.297l-0,119.138c-0,14.776 4.422,26.689 13.27,35.742c8.849,9.05 20.643,13.574 35.39,13.574c14.744,0 26.542,-4.524 35.391,-13.574c8.848,-9.053 13.27,-20.966 13.27,-35.742c0,-2.218 0.737,-3.879 2.213,-4.988c1.473,-1.107 3.5,-1.477 6.081,-1.107l88.573,-0c5.531,0.369 8.294,2.216 8.294,5.54c0,26.599 -7.562,54.49 -20.278,74.809c-12.721,20.317 -30.6,36.109 -53.638,47.377c-23.041,11.267 -49.678,16.9 -79.906,16.9Z" style="fill:#fff;fill-rule:nonzero;"/><path d="M4678.25,914.491c-2.581,0 -4.608,-0.739 -6.081,-2.216c-1.476,-1.478 -2.213,-3.509 -2.213,-6.097l0,-371.265c0,-2.588 0.737,-4.619 2.213,-6.095c1.473,-1.479 3.5,-2.218 6.081,-2.218l87.373,-0c2.577,-0 4.604,0.739 6.081,2.218c1.473,1.476 2.214,3.507 2.214,6.095l-0,371.265c-0,2.588 -0.741,4.619 -2.214,6.097c-1.477,1.477 -3.504,2.216 -6.081,2.216l-87.373,0Z" style="fill:#fff;fill-rule:nonzero;"/><path d="M5033.82,534.913c-0,-2.588 0.736,-4.619 2.213,-6.095c1.472,-1.479 3.499,-2.218 6.081,-2.218l87.368,-0c2.582,-0 4.609,0.739 6.086,2.218c1.472,1.476 2.213,3.507 2.213,6.095l-0,371.265c-0,2.588 -0.741,4.619 -2.213,6.097c-1.477,1.477 -3.504,2.216 -6.086,2.216l-83.496,0c-4.427,0 -7.744,-1.848 -9.953,-5.541l-112.81,-188.404c-0.736,-1.108 -1.473,-1.57 -2.209,-1.386c-0.741,0.185 -1.109,1.017 -1.109,2.494l1.109,184.524c-0,2.588 -0.741,4.619 -2.213,6.097c-1.473,1.477 -3.504,2.216 -6.081,2.216l-87.373,0c-2.582,0 -4.609,-0.739 -6.081,-2.216c-1.477,-1.478 -2.213,-3.509 -2.213,-6.097l-0,-371.265c-0,-2.588 0.736,-4.619 2.213,-6.095c1.472,-1.479 3.499,-2.218 6.081,-2.218l83.501,-0c4.422,-0 7.739,1.848 9.953,5.541l112.255,188.405c0.737,1.108 1.473,1.57 2.209,1.385c0.741,-0.185 1.109,-1.017 1.109,-2.493l-0.554,-184.525Z" style="fill:#fff;fill-rule:nonzero;"/><path d="M5470.11,526.6c2.581,-0 4.608,0.739 6.081,2.218c1.477,1.476 2.213,3.507 2.213,6.095l0,73.145c0,2.585 -0.736,4.617 -2.213,6.095c-1.473,1.477 -3.5,2.216 -6.081,2.216l-92.9,0c-1.845,0 -2.763,0.924 -2.763,2.77l0,287.039c0,2.588 -0.741,4.619 -2.213,6.097c-1.477,1.477 -3.504,2.216 -6.081,2.216l-87.373,0c-2.581,0 -4.608,-0.739 -6.081,-2.216c-1.477,-1.478 -2.213,-3.509 -2.213,-6.097l-0,-287.039c-0,-1.846 -0.923,-2.77 -2.764,-2.77l-90.136,0c-2.581,0 -4.608,-0.739 -6.081,-2.216c-1.477,-1.478 -2.213,-3.51 -2.213,-6.095l-0,-73.145c-0,-2.588 0.736,-4.619 2.213,-6.095c1.473,-1.479 3.5,-2.218 6.081,-2.218l292.524,-0Z" style="fill:#fff;fill-rule:nonzero;"/><path d="M5705.68,534.913c-0,-2.588 0.736,-4.619 2.213,-6.095c1.473,-1.479 3.5,-2.218 6.081,-2.218l87.369,-0c2.581,-0 4.608,0.739 6.085,2.218c1.472,1.476 2.209,3.507 2.209,6.095l-0,371.265c-0,2.588 -0.737,4.619 -2.209,6.097c-1.477,1.477 -3.504,2.216 -6.085,2.216l-87.369,0c-2.581,0 -4.608,-0.739 -6.081,-2.216c-1.477,-1.478 -2.213,-3.509 -2.213,-6.097l-0,-140.749c-0,-1.846 -0.923,-2.77 -2.768,-2.77l-86.264,-0c-1.841,-0 -2.763,0.924 -2.763,2.77l-0,140.749c-0,2.588 -0.737,4.619 -2.214,6.097c-1.472,1.477 -3.499,2.216 -6.081,2.216l-87.368,0c-2.582,0 -4.609,-0.739 -6.086,-2.216c-1.472,-1.478 -2.208,-3.509 -2.208,-6.097l-0,-371.265c-0,-2.588 0.736,-4.619 2.208,-6.095c1.477,-1.479 3.504,-2.218 6.086,-2.218l87.368,-0c2.582,-0 4.609,0.739 6.081,2.218c1.477,1.476 2.214,3.507 2.214,6.095l-0,135.761c-0,1.848 0.922,2.77 2.763,2.77l86.264,0c1.845,0 2.768,-0.922 2.768,-2.77l-0,-135.761Z" style="fill:#fff;fill-rule:nonzero;"/></g></g></svg>