<?xml version="1.0" encoding="UTF-8" standalone="no"?><!DOCTYPE svg PUBLIC "-//W3C//DTD SVG 1.1//EN" "http://www.w3.org/Graphics/SVG/1.1/DTD/svg11.dtd"><svg width="100%" height="100%" viewBox="0 0 6000 2375" version="1.1" xmlns="http://www.w3.org/2000/svg" xmlns:xlink="http://www.w3.org/1999/xlink" xml:space="preserve" xmlns:serif="http://www.serif.com/" style="fill-rule:evenodd;clip-rule:evenodd;stroke-linecap:round;stroke-linejoin:round;stroke-miterlimit:1.5;"><rect id="Transparent-black-Logo" serif:id="Transparent black Logo" x="0" y="0" width="6000" height="2375" style="fill:#fff;fill-opacity:0;"/><g id="Flower"><path id="Stem" d="M1120.77,1131.95c-288.031,86.607 -0,634.61 -0,815.645" style="fill:none;stroke:#74b652;stroke-width:41.67px;"/><g id="Petals"><g><path d="M516.222,1422.07c-5.348,2.726 -8.749,8.271 -8.749,14.311l0,182.55c0,8.859 7.172,16.046 16.044,16.046l182.163,0c6.028,0 11.53,-3.376 14.281,-8.766c12.891,-25.34 51.932,-102.04 93.045,-182.86c16.723,-32.867 10.417,-72.797 -15.641,-98.879c-26.028,-26.083 -65.843,-32.403 -98.671,-15.644c-80.618,41.2 -157.187,80.324 -182.472,93.242Z" style="fill:#7b52ae;"/></g><g><path d="M1640.65,703.607c5.348,-2.726 8.748,-8.271 8.748,-14.311l0,-182.55c0,-8.859 -7.171,-16.046 -16.043,-16.046l-182.164,0c-6.027,0 -11.53,3.377 -14.281,8.767c-12.89,25.339 -51.932,102.039 -93.044,182.859c-16.724,32.867 -10.418,72.797 15.641,98.88c26.028,26.083 65.842,32.402 98.671,15.643c80.618,-41.2 157.186,-80.324 182.472,-93.242Z" style="fill:#7b52ae;"/></g><g><path d="M1222.49,410.458c1.858,-5.717 0.35,-12.048 -3.913,-16.319c-23.431,-23.481 -99.781,-99.993 -128.809,-129.082c-6.251,-6.265 -16.393,-6.265 -22.666,0.022l-128.81,129.082c-4.262,4.271 -5.77,10.558 -3.912,16.319c8.765,27.052 35.279,108.952 63.235,195.233c11.366,35.09 44,58.857 80.831,58.835c36.809,-0 69.421,-23.745 80.809,-58.857c27.934,-86.259 54.47,-168.181 63.235,-195.233Z" style="fill:#7b52ae;"/></g><g><path d="M1729.46,1207.19c5.705,1.862 12.022,0.351 16.284,-3.921c23.432,-23.481 99.782,-99.993 128.809,-129.082c6.251,-6.264 6.251,-16.428 -0.022,-22.714c-29.005,-29.067 -105.377,-105.601 -128.809,-129.082c-4.262,-4.272 -10.535,-5.783 -16.284,-3.921c-26.995,8.783 -108.722,35.353 -194.82,63.369c-35.017,11.39 -58.732,44.093 -58.711,81.002c0,36.887 23.694,69.568 58.733,80.98c86.076,27.994 167.825,54.586 194.82,63.369Z" style="fill:#7b52ae;"/></g><g><path d="M427.443,918.485c-5.705,-1.862 -12.022,-0.351 -16.285,3.921c-23.431,23.481 -99.781,99.993 -128.809,129.082c-6.251,6.265 -6.251,16.428 0.022,22.715l128.809,129.082c4.263,4.271 10.536,5.782 16.284,3.921c26.995,-8.784 108.722,-35.354 194.821,-63.37c35.016,-11.39 58.732,-44.093 58.71,-81.002c0,-36.887 -23.694,-69.568 -58.732,-80.98c-86.077,-27.994 -167.826,-54.585 -194.82,-63.369Z" style="fill:#7b52ae;"/></g><g><path d="M1436.93,1626.25c2.72,5.359 8.254,8.767 14.281,8.767l182.164,-0c8.841,-0 16.012,-7.187 16.012,-16.077l0,-182.55c0,-6.041 -3.369,-11.554 -8.748,-14.311c-25.286,-12.918 -101.823,-52.042 -182.472,-93.242c-32.798,-16.759 -72.643,-10.44 -98.671,15.674c-26.028,26.083 -32.334,65.982 -15.61,98.88c41.112,80.789 80.154,157.52 93.044,182.859Z" style="fill:#7b52ae;"/></g><g><path d="M717.453,496.901c-2.72,-5.359 -8.253,-8.767 -14.281,-8.767l-182.163,0c-8.841,0 -16.013,7.187 -16.013,16.077l0,182.55c0,6.041 3.37,11.555 8.748,14.311c25.286,12.918 101.824,52.042 182.473,93.242c32.797,16.759 72.643,10.44 98.67,-15.674c26.028,-26.083 32.334,-65.982 15.611,-98.88c-41.113,-80.789 -80.154,-157.52 -93.045,-182.859Z" style="fill:#7b52ae;"/></g></g></g><g id="Bots"><g id="Shadow" transform="matrix(0.997885,0,0,1,-1559.69,-2.91038e-11)"><text x="6316.14px" y="1881.91px" style="font-family:'MS-PGothic', 'MS PGothic', sans-serif;font-size:402.679px;fill:#555;fill-opacity:0;stroke:#aaa;stroke-width:0.54px;stroke-linecap:butt;stroke-miterlimit:2;">BOTS</text></g><g id="Main" transform="matrix(0.997885,0,0,1,-210.06,0)"><text x="4926.98px" y="1852.92px" style="font-family:'MS-PGothic', 'MS PGothic', sans-serif;font-size:402.397px;">BOTS</text></g></g><g id="Hyacinth"><g id="Shadow1" serif:id="Shadow"><path d="M2454.06,977.913c0,-3.726 1.061,-6.651 3.187,-8.777c2.121,-2.129 5.04,-3.194 8.757,-3.194l125.81,0c3.718,0 6.636,1.065 8.763,3.194c2.121,2.126 3.181,5.051 3.181,8.777l-0,534.638c-0,3.726 -1.06,6.651 -3.181,8.78c-2.127,2.127 -5.045,3.191 -8.763,3.191l-125.81,0c-3.717,0 -6.636,-1.064 -8.757,-3.191c-2.126,-2.129 -3.187,-5.054 -3.187,-8.78l0,-202.684c0,-2.659 -1.328,-3.99 -3.985,-3.99l-124.22,0c-2.651,0 -3.979,1.331 -3.979,3.99l-0,202.684c-0,3.726 -1.061,6.651 -3.187,8.78c-2.121,2.127 -5.04,3.191 -8.757,3.191l-125.81,0c-3.717,0 -6.636,-1.064 -8.763,-3.191c-2.121,-2.129 -3.181,-5.054 -3.181,-8.78l0,-534.638c0,-3.726 1.06,-6.651 3.181,-8.777c2.127,-2.129 5.046,-3.194 8.763,-3.194l125.81,0c3.717,0 6.636,1.065 8.757,3.194c2.126,2.126 3.187,5.051 3.187,8.777l-0,195.502c-0,2.661 1.328,3.989 3.979,3.989l124.22,0c2.657,0 3.985,-1.328 3.985,-3.989l0,-195.502Zm5.526,0c0,-2.037 0.406,-3.696 1.566,-4.861c1.166,-1.162 2.819,-1.567 4.852,-1.567l125.81,-0c2.034,-0 3.693,0.405 4.853,1.567c1.16,1.165 1.565,2.824 1.565,4.861l0,534.638c0,2.037 -0.405,3.696 -1.565,4.862c-1.16,1.162 -2.819,1.567 -4.853,1.567l-125.81,-0c-2.033,-0 -3.686,-0.405 -4.852,-1.567c-1.16,-1.166 -1.566,-2.825 -1.566,-4.862l0,-202.684c0,-3.115 -1.06,-5.35 -2.613,-6.909c-1.553,-1.559 -3.786,-2.621 -6.898,-2.621l-124.22,-0c-3.106,-0 -5.339,1.062 -6.892,2.621c-1.559,1.559 -2.619,3.794 -2.619,6.909l-0,202.684c-0,2.037 -0.4,3.696 -1.566,4.862c-1.16,1.162 -2.813,1.567 -4.846,1.567l-125.81,-0c-2.034,-0 -3.693,-0.405 -4.853,-1.567c-1.16,-1.166 -1.565,-2.825 -1.565,-4.862l-0,-534.638c-0,-2.037 0.405,-3.696 1.565,-4.861c1.16,-1.162 2.819,-1.567 4.853,-1.567l125.81,-0c2.033,-0 3.686,0.405 4.846,1.567c1.166,1.165 1.566,2.824 1.566,4.861l-0,195.502c-0,3.117 1.06,5.352 2.619,6.911c1.553,1.559 3.786,2.621 6.892,2.621l124.22,0c3.112,0 5.345,-1.062 6.898,-2.621c1.553,-1.559 2.613,-3.794 2.613,-6.911l0,-195.502Z" style="fill:#555;"/><path d="M2823.53,1522.93c-3.717,-0 -6.636,-1.065 -8.756,-3.191c-2.127,-2.13 -3.187,-5.055 -3.187,-8.778l-0,-176.352l-0.799,-4.788l-162.439,-349.511l-1.591,-6.385c0,-5.318 3.449,-7.979 10.347,-7.979l136.962,0c6.905,0 11.682,3.194 14.333,9.576l75.647,190.716c1.596,3.723 3.187,3.723 4.777,0l75.647,-190.716c2.657,-6.382 7.435,-9.576 14.333,-9.576l137.76,0c6.898,0 10.353,2.661 10.353,7.979l-1.596,6.385l-164.03,349.511c-0.537,1.064 -0.799,2.661 -0.799,4.788l0,176.352c0,3.723 -1.06,6.648 -3.187,8.778c-2.12,2.126 -5.039,3.191 -8.756,3.191l-125.019,-0Zm0,-5.541c-2.033,0 -3.686,-0.407 -4.846,-1.569c-1.16,-1.163 -1.565,-2.825 -1.565,-4.859l-0,-176.352c-0,-0.304 -0.025,-0.609 -0.075,-0.91l-0.798,-4.788c-0.081,-0.494 -0.231,-0.975 -0.443,-1.428l-162.215,-349.031l-1.26,-5.04c0.299,-1.725 2.17,-1.923 4.777,-1.923l136.962,-0c4.435,-0 7.509,2.045 9.218,6.135l75.623,190.659c0.018,0.046 0.037,0.092 0.056,0.136c2.102,4.907 5.376,6.154 7.472,6.154c2.101,-0 5.376,-1.247 7.471,-6.154c0.019,-0.044 0.038,-0.09 0.056,-0.136l75.629,-190.659c1.709,-4.09 4.784,-6.135 9.212,-6.135l137.76,-0c2.613,-0 4.478,0.198 4.778,1.917c-0,0.006 -1.254,5.035 -1.254,5.035l-163.793,349.001c-0.786,1.621 -1.335,3.989 -1.335,7.167l0,176.352c0,2.034 -0.405,3.696 -1.565,4.859c-1.16,1.162 -2.813,1.569 -4.846,1.569l-125.019,0Z" style="fill:#555;"/><path d="M3427.11,1524.52c-7.428,0 -11.944,-3.457 -13.534,-10.374l-17.519,-62.24c-1.061,-2.129 -2.389,-3.194 -3.98,-3.194l-168.813,-0c-1.591,-0 -2.919,1.065 -3.979,3.194l-17.52,62.24c-1.59,6.917 -6.106,10.374 -13.54,10.374l-136.164,0c-9.555,0 -13.004,-4.521 -10.347,-13.565l168.016,-535.439c2.12,-6.382 6.636,-9.576 13.534,-9.576l168.813,0c6.898,0 11.414,3.194 13.535,9.576l168.015,535.439c0.53,1.065 0.798,2.659 0.798,4.788c0,5.85 -3.717,8.777 -11.151,8.777l-136.164,0Zm0,-5.542c-2.301,-0 -4.197,-0.381 -5.594,-1.453c-1.323,-1.011 -2.084,-2.602 -2.551,-4.625c-0.019,-0.087 -0.044,-0.171 -0.069,-0.258l-17.519,-62.241c-0.094,-0.337 -0.219,-0.662 -0.375,-0.975c-2.27,-4.546 -5.525,-6.254 -8.925,-6.254l-168.813,-0c-3.399,-0 -6.661,1.708 -8.925,6.254c-0.156,0.313 -0.281,0.638 -0.381,0.975l-17.513,62.241c-0.025,0.087 -0.05,0.171 -0.068,0.258c-0.468,2.023 -1.229,3.614 -2.551,4.625c-1.397,1.072 -3.293,1.453 -5.601,1.453l-136.164,-0c-1.391,-0 -2.601,-0.109 -3.636,-0.373c-0.742,-0.187 -1.366,-0.374 -1.721,-0.841c-0.343,-0.443 -0.343,-1.054 -0.325,-1.763c0.032,-1.024 0.256,-2.167 0.624,-3.444l167.978,-535.319c1.304,-3.873 4.085,-5.755 8.283,-5.755l168.813,-0c4.173,-0 6.955,1.863 8.258,5.695c0.019,0.06 168.016,535.439 168.016,535.439c0.093,0.28 0.199,0.554 0.33,0.815c0.256,0.51 0.212,1.293 0.212,2.311c0,0.828 -0.05,1.534 -0.468,2.031c-0.954,1.128 -2.763,1.204 -5.151,1.204l-136.164,-0Zm-178.113,-191.461c-0.056,0.193 -0.1,0.391 -0.131,0.59c-0.567,3.392 0.125,5.879 1.248,7.574c1.446,2.17 3.779,3.666 7.39,3.666l99.535,0c4.029,0 6.442,-1.648 7.79,-3.666c1.234,-1.855 1.877,-4.609 0.679,-8.302c0.007,0.019 -50.93,-178.628 -50.93,-178.628c-0.019,-0.079 -0.044,-0.155 -0.069,-0.231c-1.54,-4.639 -4.553,-6.184 -7.634,-6.184c-3.087,-0 -6.093,1.545 -7.634,6.184c-0.031,0.084 -0.056,0.168 -0.081,0.252l-50.163,178.745Zm5.32,1.499c-0.53,3.194 0.53,4.788 3.187,4.788l99.535,0c3.187,0 4.247,-1.594 3.187,-4.788l-50.962,-178.745c-0.53,-1.594 -1.328,-2.392 -2.389,-2.392c-1.06,-0 -1.858,0.798 -2.388,2.392l-50.17,178.745Z" style="fill:#555;"/><path d="M3813.31,1530.9c-43.533,-0 -81.884,-8.512 -115.064,-25.534c-33.18,-17.023 -58.926,-41.096 -77.237,-72.216c-18.318,-31.123 -27.474,-67.164 -27.474,-108.126l0,-161.19c0,-40.43 9.156,-76.072 27.474,-106.929c18.311,-30.854 44.057,-54.794 77.237,-71.816c33.18,-17.023 71.531,-25.534 115.064,-25.534c43.528,-0 81.884,7.979 115.065,23.937c33.174,15.961 58.92,38.436 77.237,67.43c18.312,28.991 27.474,70.619 27.474,108.922c-0,4.788 -3.986,7.713 -11.944,8.778l-128.205,-0c-6.368,-0 -9.555,-2.925 -9.555,-8.778c-0,-21.81 -6.368,-39.232 -19.11,-52.268c-12.742,-13.033 -29.731,-19.548 -50.962,-19.548c-21.236,-0 -38.219,6.515 -50.961,19.548c-12.742,13.036 -19.11,30.458 -19.11,52.268l0,171.565c0,21.278 6.368,38.434 19.11,51.469c12.742,13.033 29.725,19.549 50.961,19.549c21.231,-0 38.22,-6.516 50.962,-19.549c12.742,-13.035 19.11,-30.191 19.11,-51.469c-0,-3.194 1.06,-5.587 3.187,-7.184c2.12,-1.594 5.039,-2.126 8.756,-1.594l127.545,0c7.964,0.533 11.943,3.191 11.943,7.979c0,38.304 -10.889,78.467 -29.201,107.727c-18.317,29.258 -44.063,52 -77.237,68.226c-33.181,16.225 -71.537,24.337 -115.065,24.337Zm82.015,-367.791l-2.388,-0.028c-1.491,0 -2.682,-0.054 -3.431,-0.738c-0.58,-0.538 -0.592,-1.426 -0.592,-2.499c-0,-23.451 -6.992,-42.13 -20.694,-56.143c-13.74,-14.057 -32.008,-21.216 -54.91,-21.216c-22.901,0 -41.169,7.159 -54.915,21.216c-13.697,14.013 -20.688,32.692 -20.688,56.143l-0,171.565c-0,22.899 6.979,41.318 20.688,55.345c13.746,14.057 32.014,21.215 54.915,21.215c22.902,0 41.17,-7.158 54.91,-21.215c13.715,-14.027 20.694,-32.446 20.694,-55.345c-0,-1.184 0.181,-2.157 0.973,-2.749c1.116,-0.842 2.7,-0.825 4.659,-0.543c0.256,0.035 0.517,0.054 0.779,0.054l127.351,0c2.277,0.163 4.123,0.495 5.501,1.141c0.636,0.299 1.104,0.657 1.104,1.298c0,37.253 -10.54,76.325 -28.353,104.781c-17.775,28.396 -42.778,50.446 -74.979,66.192c-32.476,15.882 -70.028,23.776 -112.639,23.776c-42.573,0 -80.094,-8.277 -112.544,-24.925c-32.207,-16.528 -57.217,-39.887 -74.999,-70.1c-17.831,-30.306 -26.7,-65.418 -26.7,-105.31l0,-161.19c0,-39.355 8.863,-74.06 26.694,-104.094c17.781,-29.96 42.791,-53.191 75.005,-69.719c32.45,-16.648 69.971,-24.926 112.544,-24.926c42.623,0 80.182,7.767 112.67,23.394c32.188,15.483 57.192,37.266 74.961,65.396c17.812,28.198 26.613,68.709 26.613,105.959c-0,0.801 -0.574,1.29 -1.372,1.719c-1.36,0.725 -3.169,1.193 -5.383,1.513c-0.037,0.005 -125.474,0.005 -125.474,0.005l0,0.028Z" style="fill:#555;"/><path d="M4097.58,1524.52c-3.717,0 -6.636,-1.064 -8.756,-3.191c-2.127,-2.129 -3.187,-5.054 -3.187,-8.78l-0,-534.638c-0,-3.726 1.06,-6.651 3.187,-8.777c2.12,-2.129 5.039,-3.194 8.756,-3.194l125.817,0c3.711,0 6.63,1.065 8.757,3.194c2.12,2.126 3.187,5.051 3.187,8.777l-0,534.638c-0,3.726 -1.067,6.651 -3.187,8.78c-2.127,2.127 -5.046,3.191 -8.757,3.191l-125.817,0Zm0,-5.542c-2.033,-0 -3.686,-0.405 -4.846,-1.567c-1.16,-1.166 -1.565,-2.825 -1.565,-4.862l-0,-534.638c-0,-2.037 0.405,-3.696 1.565,-4.861c1.16,-1.162 2.813,-1.567 4.846,-1.567l125.817,-0c2.027,-0 3.686,0.405 4.846,1.567c1.16,1.165 1.566,2.824 1.566,4.861l-0,534.638c-0,2.037 -0.406,3.696 -1.566,4.862c-1.16,1.162 -2.819,1.567 -4.846,1.567l-125.817,-0Z" style="fill:#555;"/><path d="M4609.59,977.913c0,-3.726 1.06,-6.651 3.187,-8.777c2.121,-2.129 5.04,-3.194 8.757,-3.194l125.81,0c3.717,0 6.636,1.065 8.763,3.194c2.121,2.126 3.187,5.051 3.187,8.777l0,534.638c0,3.726 -1.066,6.651 -3.187,8.78c-2.127,2.127 -5.046,3.191 -8.763,3.191l-120.234,0c-6.375,0 -11.152,-2.661 -14.333,-7.979l-162.446,-271.309c-1.06,-1.597 -2.12,-2.263 -3.181,-1.997c-1.066,0.267 -1.596,1.464 -1.596,3.591l1.596,265.723c0,3.726 -1.066,6.651 -3.187,8.78c-2.12,2.127 -5.045,3.191 -8.756,3.191l-125.817,0c-3.717,0 -6.636,-1.064 -8.756,-3.191c-2.127,-2.129 -3.187,-5.054 -3.187,-8.78l-0,-534.638c-0,-3.726 1.06,-6.651 3.187,-8.777c2.12,-2.129 5.039,-3.194 8.756,-3.194l120.241,0c6.368,0 11.145,2.661 14.332,7.979l161.648,271.313c1.06,1.594 2.121,2.259 3.181,1.993c1.066,-0.266 1.596,-1.464 1.596,-3.59l-0.798,-265.724Zm5.532,-0.003c0,-2.036 0.406,-3.693 1.566,-4.858c1.16,-1.162 2.813,-1.567 4.846,-1.567l125.81,-0c2.033,-0 3.692,0.405 4.853,1.567c1.16,1.165 1.565,2.824 1.565,4.861l-0,534.638c-0,2.037 -0.405,3.696 -1.565,4.862c-1.161,1.162 -2.82,1.567 -4.853,1.567l-120.234,-0c-4.254,-0 -7.466,-1.736 -9.593,-5.288l-162.439,-271.31c-0.05,-0.076 -0.094,-0.149 -0.144,-0.223c-2.85,-4.285 -6.274,-5.013 -9.124,-4.299c-2.888,0.725 -5.782,3.189 -5.782,8.968l1.59,265.731c0,2.035 -0.405,3.691 -1.565,4.854c-1.16,1.162 -2.819,1.567 -4.846,1.567l-125.817,-0c-2.033,-0 -3.686,-0.405 -4.846,-1.567c-1.16,-1.166 -1.565,-2.825 -1.565,-4.862l-0,-534.638c-0,-2.037 0.405,-3.696 1.565,-4.861c1.16,-1.162 2.813,-1.567 4.846,-1.567l120.241,-0c4.254,-0 7.466,1.735 9.592,5.288l161.636,271.301c0.049,0.079 0.099,0.155 0.149,0.231c2.85,4.286 6.274,5.013 9.125,4.299c2.887,-0.722 5.781,-3.185 5.781,-8.967l-0.792,-265.727Z" style="fill:#555;"/><path d="M5237.86,965.942c3.718,0 6.637,1.065 8.757,3.194c2.127,2.126 3.187,5.051 3.187,8.777l0,105.332c0,3.723 -1.06,6.648 -3.187,8.777c-2.12,2.127 -5.039,3.191 -8.757,3.191l-133.774,0c-2.657,0 -3.98,1.331 -3.98,3.99l0,413.348c0,3.726 -1.066,6.651 -3.187,8.78c-2.126,2.127 -5.045,3.191 -8.756,3.191l-125.817,0c-3.717,0 -6.636,-1.064 -8.756,-3.191c-2.127,-2.129 -3.188,-5.054 -3.188,-8.78l0,-413.348c0,-2.659 -1.328,-3.99 -3.979,-3.99l-129.795,0c-3.718,0 -6.637,-1.064 -8.757,-3.191c-2.127,-2.129 -3.187,-5.054 -3.187,-8.777l-0,-105.332c-0,-3.726 1.06,-6.651 3.187,-8.777c2.12,-2.129 5.039,-3.194 8.757,-3.194l421.232,0Zm0,5.543c2.034,-0 3.686,0.405 4.853,1.567c1.16,1.165 1.565,2.824 1.565,4.861l0,105.332c0,2.034 -0.405,3.696 -1.565,4.859c-1.167,1.162 -2.819,1.569 -4.853,1.569l-133.774,0c-3.113,0 -5.339,1.062 -6.898,2.621c-1.553,1.556 -2.614,3.794 -2.614,6.909l0,413.348c0,2.037 -0.405,3.696 -1.565,4.862c-1.16,1.162 -2.819,1.567 -4.846,1.567l-125.817,-0c-2.033,-0 -3.686,-0.405 -4.846,-1.567c-1.16,-1.166 -1.565,-2.825 -1.565,-4.862l-0,-413.348c-0,-3.115 -1.061,-5.353 -2.62,-6.909c-1.553,-1.559 -3.786,-2.621 -6.892,-2.621l-129.795,0c-2.034,0 -3.686,-0.407 -4.847,-1.569c-1.166,-1.163 -1.565,-2.825 -1.565,-4.859l0,-105.332c0,-2.037 0.399,-3.696 1.565,-4.861c1.161,-1.162 2.813,-1.567 4.847,-1.567l421.232,-0Z" style="fill:#555;"/><path d="M5577.08,977.913c0,-3.726 1.061,-6.651 3.187,-8.777c2.121,-2.129 5.04,-3.194 8.757,-3.194l125.81,0c3.718,0 6.636,1.065 8.763,3.194c2.121,2.126 3.181,5.051 3.181,8.777l0,534.638c0,3.726 -1.06,6.651 -3.181,8.78c-2.127,2.127 -5.045,3.191 -8.763,3.191l-125.81,0c-3.717,0 -6.636,-1.064 -8.757,-3.191c-2.126,-2.129 -3.187,-5.054 -3.187,-8.78l0,-202.684c0,-2.659 -1.328,-3.99 -3.985,-3.99l-124.22,0c-2.651,0 -3.979,1.331 -3.979,3.99l-0,202.684c-0,3.726 -1.06,6.651 -3.187,8.78c-2.121,2.127 -5.04,3.191 -8.757,3.191l-125.81,0c-3.717,0 -6.636,-1.064 -8.763,-3.191c-2.121,-2.129 -3.181,-5.054 -3.181,-8.78l0,-534.638c0,-3.726 1.06,-6.651 3.181,-8.777c2.127,-2.129 5.046,-3.194 8.763,-3.194l125.81,0c3.717,0 6.636,1.065 8.757,3.194c2.127,2.126 3.187,5.051 3.187,8.777l-0,195.502c-0,2.661 1.328,3.989 3.979,3.989l124.22,0c2.657,0 3.985,-1.328 3.985,-3.989l0,-195.502Zm5.526,0c0,-2.037 0.406,-3.696 1.566,-4.861c1.166,-1.162 2.819,-1.567 4.852,-1.567l125.81,-0c2.034,-0 3.693,0.405 4.853,1.567c1.16,1.165 1.565,2.824 1.565,4.861l0,534.638c0,2.037 -0.405,3.696 -1.565,4.862c-1.16,1.162 -2.819,1.567 -4.853,1.567l-125.81,-0c-2.033,-0 -3.686,-0.405 -4.852,-1.567c-1.16,-1.166 -1.566,-2.825 -1.566,-4.862l0,-202.684c0,-3.115 -1.06,-5.35 -2.613,-6.909c-1.553,-1.559 -3.786,-2.621 -6.898,-2.621l-124.22,-0c-3.106,-0 -5.339,1.062 -6.892,2.621c-1.559,1.559 -2.619,3.794 -2.619,6.909l-0,202.684c-0,2.037 -0.399,3.696 -1.566,4.862c-1.16,1.162 -2.813,1.567 -4.846,1.567l-125.81,-0c-2.033,-0 -3.692,-0.405 -4.853,-1.567c-1.16,-1.166 -1.565,-2.825 -1.565,-4.862l0,-534.638c0,-2.037 0.405,-3.696 1.565,-4.861c1.161,-1.162 2.82,-1.567 4.853,-1.567l125.81,-0c2.033,-0 3.686,0.405 4.846,1.567c1.167,1.165 1.566,2.824 1.566,4.861l-0,195.502c-0,3.117 1.06,5.352 2.619,6.911c1.553,1.559 3.786,2.621 6.892,2.621l124.22,0c3.112,0 5.345,-1.062 6.898,-2.621c1.553,-1.559 2.613,-3.794 2.613,-6.911l0,-195.502Z" style="fill:#555;"/></g><g id="Main1" serif:id="Main"><path d="M2343.46,922.499c-0,-3.726 1.06,-6.651 3.187,-8.778c2.12,-2.129 5.039,-3.194 8.756,-3.194l125.811,0c3.717,0 6.636,1.065 8.763,3.194c2.12,2.127 3.18,5.052 3.18,8.778l0,534.638c0,3.726 -1.06,6.651 -3.18,8.78c-2.127,2.126 -5.046,3.191 -8.763,3.191l-125.811,-0c-3.717,-0 -6.636,-1.065 -8.756,-3.191c-2.127,-2.129 -3.187,-5.054 -3.187,-8.78l-0,-202.685c-0,-2.659 -1.329,-3.989 -3.986,-3.989l-124.22,-0c-2.65,-0 -3.979,1.33 -3.979,3.989l0,202.685c0,3.726 -1.06,6.651 -3.187,8.78c-2.12,2.126 -5.039,3.191 -8.756,3.191l-125.811,-0c-3.717,-0 -6.636,-1.065 -8.763,-3.191c-2.12,-2.129 -3.181,-5.054 -3.181,-8.78l0,-534.638c0,-3.726 1.061,-6.651 3.181,-8.778c2.127,-2.129 5.046,-3.194 8.763,-3.194l125.811,0c3.717,0 6.636,1.065 8.756,3.194c2.127,2.127 3.187,5.052 3.187,8.778l0,195.501c0,2.661 1.329,3.989 3.979,3.989l124.22,0c2.657,0 3.986,-1.328 3.986,-3.989l-0,-195.501Z" style="fill-rule:nonzero;"/><path d="M2712.94,1467.51c-3.717,-0 -6.636,-1.065 -8.757,-3.191c-2.127,-2.129 -3.187,-5.054 -3.187,-8.778l0,-176.352l-0.798,-4.788l-162.44,-349.511l-1.59,-6.385c-0,-5.317 3.449,-7.979 10.347,-7.979l136.962,0c6.904,0 11.681,3.194 14.332,9.576l75.647,190.716c1.597,3.724 3.187,3.724 4.778,0l75.647,-190.716c2.657,-6.382 7.434,-9.576 14.332,-9.576l137.76,0c6.898,0 10.354,2.662 10.354,7.979l-1.597,6.385l-164.03,349.511c-0.536,1.065 -0.798,2.662 -0.798,4.788l-0,176.352c-0,3.724 -1.061,6.649 -3.187,8.778c-2.121,2.126 -5.04,3.191 -8.757,3.191l-125.018,-0Z" style="fill-rule:nonzero;"/><path d="M3316.52,1469.11c-7.428,-0 -11.943,-3.457 -13.534,-10.374l-17.519,-62.241c-1.06,-2.129 -2.389,-3.194 -3.979,-3.194l-168.814,0c-1.59,0 -2.919,1.065 -3.979,3.194l-17.519,62.241c-1.591,6.917 -6.106,10.374 -13.541,10.374l-136.163,-0c-9.555,-0 -13.004,-4.522 -10.347,-13.566l168.015,-535.439c2.121,-6.382 6.636,-9.576 13.534,-9.576l168.814,0c6.898,0 11.413,3.194 13.534,9.576l168.015,535.439c0.53,1.065 0.799,2.659 0.799,4.788c-0,5.85 -3.718,8.778 -11.152,8.778l-136.164,-0Zm-172.792,-195.504c-0.531,3.194 0.53,4.788 3.187,4.788l99.534,-0c3.187,-0 4.247,-1.594 3.187,-4.788l-50.961,-178.745c-0.531,-1.594 -1.329,-2.393 -2.389,-2.393c-1.06,0 -1.859,0.799 -2.389,2.393l-50.169,178.745Z" style="fill-rule:nonzero;"/><path d="M3702.72,1475.49c-43.534,-0 -81.884,-8.511 -115.064,-25.534c-33.181,-17.022 -58.927,-41.095 -77.238,-72.215c-18.318,-31.123 -27.474,-67.165 -27.474,-108.127l0,-161.19c0,-40.43 9.156,-76.072 27.474,-106.929c18.311,-30.854 44.057,-54.793 77.238,-71.816c33.18,-17.022 71.53,-25.534 115.064,-25.534c43.527,0 81.884,7.979 115.064,23.937c33.174,15.961 58.92,38.437 77.238,67.431c18.311,28.991 27.473,70.618 27.473,108.922c0,4.788 -3.985,7.712 -11.943,8.777l-128.206,0c-6.368,0 -9.555,-2.925 -9.555,-8.777c0,-21.811 -6.368,-39.233 -19.11,-52.268c-12.742,-13.033 -29.731,-19.549 -50.961,-19.549c-21.237,0 -38.22,6.516 -50.962,19.549c-12.742,13.035 -19.11,30.457 -19.11,52.268l0,171.564c0,21.278 6.368,38.434 19.11,51.47c12.742,13.033 29.725,19.548 50.962,19.548c21.23,-0 38.219,-6.515 50.961,-19.548c12.742,-13.036 19.11,-30.192 19.11,-51.47c0,-3.194 1.06,-5.586 3.187,-7.183c2.121,-1.594 5.04,-2.127 8.757,-1.594l127.544,-0c7.965,0.532 11.944,3.191 11.944,7.979c-0,38.303 -10.89,78.467 -29.201,107.727c-18.318,29.257 -44.064,51.999 -77.238,68.226c-33.18,16.224 -71.537,24.336 -115.064,24.336Z" style="fill-rule:nonzero;"/><path d="M3986.99,1469.11c-3.717,-0 -6.636,-1.065 -8.757,-3.191c-2.127,-2.129 -3.187,-5.054 -3.187,-8.78l0,-534.638c0,-3.726 1.06,-6.651 3.187,-8.778c2.121,-2.129 5.04,-3.194 8.757,-3.194l125.816,0c3.711,0 6.63,1.065 8.757,3.194c2.121,2.127 3.187,5.052 3.187,8.778l0,534.638c0,3.726 -1.066,6.651 -3.187,8.78c-2.127,2.126 -5.046,3.191 -8.757,3.191l-125.816,-0Z" style="fill-rule:nonzero;"/><path d="M4499,922.499c-0,-3.726 1.06,-6.651 3.187,-8.778c2.12,-2.129 5.039,-3.194 8.756,-3.194l125.811,0c3.717,0 6.636,1.065 8.762,3.194c2.121,2.127 3.187,5.052 3.187,8.778l0,534.638c0,3.726 -1.066,6.651 -3.187,8.78c-2.126,2.126 -5.045,3.191 -8.762,3.191l-120.235,-0c-6.374,-0 -11.152,-2.662 -14.332,-7.979l-162.446,-271.31c-1.061,-1.597 -2.121,-2.262 -3.181,-1.996c-1.067,0.266 -1.597,1.464 -1.597,3.59l1.597,265.724c-0,3.726 -1.067,6.651 -3.187,8.78c-2.121,2.126 -5.046,3.191 -8.757,3.191l-125.816,-0c-3.718,-0 -6.636,-1.065 -8.757,-3.191c-2.127,-2.129 -3.187,-5.054 -3.187,-8.78l-0,-534.638c-0,-3.726 1.06,-6.651 3.187,-8.778c2.121,-2.129 5.039,-3.194 8.757,-3.194l120.24,0c6.368,0 11.146,2.662 14.333,7.979l161.647,271.313c1.061,1.594 2.121,2.26 3.181,1.993c1.067,-0.266 1.597,-1.463 1.597,-3.59l-0.798,-265.723Z" style="fill-rule:nonzero;"/><path d="M5127.27,910.527c3.717,0 6.636,1.065 8.756,3.194c2.127,2.127 3.187,5.052 3.187,8.778l0,105.331c0,3.724 -1.06,6.649 -3.187,8.778c-2.12,2.126 -5.039,3.191 -8.756,3.191l-133.775,-0c-2.657,-0 -3.979,1.331 -3.979,3.989l-0,413.349c-0,3.726 -1.067,6.651 -3.187,8.78c-2.127,2.126 -5.046,3.191 -8.757,3.191l-125.817,-0c-3.717,-0 -6.636,-1.065 -8.756,-3.191c-2.127,-2.129 -3.187,-5.054 -3.187,-8.78l-0,-413.349c-0,-2.658 -1.329,-3.989 -3.979,-3.989l-129.796,-0c-3.717,-0 -6.636,-1.065 -8.757,-3.191c-2.126,-2.129 -3.187,-5.054 -3.187,-8.778l0,-105.331c0,-3.726 1.061,-6.651 3.187,-8.778c2.121,-2.129 5.04,-3.194 8.757,-3.194l421.233,0Z" style="fill-rule:nonzero;"/><path d="M5466.48,922.499c-0,-3.726 1.06,-6.651 3.187,-8.778c2.12,-2.129 5.039,-3.194 8.756,-3.194l125.811,0c3.717,0 6.636,1.065 8.763,3.194c2.12,2.127 3.18,5.052 3.18,8.778l0,534.638c0,3.726 -1.06,6.651 -3.18,8.78c-2.127,2.126 -5.046,3.191 -8.763,3.191l-125.811,-0c-3.717,-0 -6.636,-1.065 -8.756,-3.191c-2.127,-2.129 -3.187,-5.054 -3.187,-8.78l-0,-202.685c-0,-2.659 -1.329,-3.989 -3.986,-3.989l-124.22,-0c-2.65,-0 -3.979,1.33 -3.979,3.989l0,202.685c0,3.726 -1.06,6.651 -3.187,8.78c-2.12,2.126 -5.039,3.191 -8.756,3.191l-125.811,-0c-3.717,-0 -6.636,-1.065 -8.763,-3.191c-2.12,-2.129 -3.18,-5.054 -3.18,-8.78l-0,-534.638c-0,-3.726 1.06,-6.651 3.18,-8.778c2.127,-2.129 5.046,-3.194 8.763,-3.194l125.811,0c3.717,0 6.636,1.065 8.756,3.194c2.127,2.127 3.187,5.052 3.187,8.778l0,195.501c0,2.661 1.329,3.989 3.979,3.989l124.22,0c2.657,0 3.986,-1.328 3.986,-3.989l-0,-195.501Z" style="fill-rule:nonzero;"/></g></g><rect x="0" y="0" width="6000" height="2375" style="fill:none;stroke:#aaa;stroke-width:6.25px;"/></svg>