<?xml version="1.0" encoding="UTF-8" standalone="no"?><!DOCTYPE svg PUBLIC "-//W3C//DTD SVG 1.1//EN" "http://www.w3.org/Graphics/SVG/1.1/DTD/svg11.dtd"><svg width="100%" height="100%" viewBox="0 0 5000 1250" version="1.1" xmlns="http://www.w3.org/2000/svg" xmlns:xlink="http://www.w3.org/1999/xlink" xml:space="preserve" xmlns:serif="http://www.serif.com/" style="fill-rule:evenodd;clip-rule:evenodd;stroke-linecap:round;stroke-linejoin:round;stroke-miterlimit:1.5;"><rect id="Charcoal-logo" serif:id="Charcoal logo" x="0" y="0" width="5000" height="1250" style="fill:#1a1a1a;"/><g id="Flower"><path id="Stem" d="M1368.42,639.658c-182.974,58.71 -0,430.192 -0,552.913" style="fill:none;stroke:#74b652;stroke-width:41.67px;"/><g id="Petals"><g><path d="M984.376,836.323c-3.397,1.848 -5.558,5.607 -5.558,9.702l0,123.747c0,6.006 4.556,10.878 10.192,10.878l115.721,-0c3.829,-0 7.325,-2.289 9.072,-5.943c8.189,-17.177 32.99,-69.171 59.108,-123.958c10.623,-22.279 6.617,-49.347 -9.937,-67.028c-16.534,-17.682 -41.827,-21.965 -62.681,-10.605c-51.213,27.929 -99.854,54.451 -115.917,63.207Z" style="fill:#7b52ae;"/></g><g><path d="M1698.68,349.29c3.397,-1.848 5.557,-5.607 5.557,-9.702l0,-123.747c0,-6.006 -4.556,-10.878 -10.191,-10.878l-115.721,0c-3.829,0 -7.325,2.289 -9.073,5.943c-8.188,17.177 -32.99,69.171 -59.107,123.958c-10.624,22.28 -6.618,49.347 9.936,67.028c16.535,17.682 41.827,21.965 62.682,10.605c51.213,-27.929 99.854,-54.451 115.917,-63.207Z" style="fill:#7b52ae;"/></g><g><path d="M1433.04,150.569c1.181,-3.876 0.222,-8.167 -2.485,-11.063c-14.885,-15.917 -63.387,-67.783 -81.827,-87.502c-3.971,-4.247 -10.414,-4.247 -14.399,0.015l-81.827,87.502c-2.708,2.896 -3.666,7.157 -2.486,11.062c5.568,18.338 22.411,73.857 40.171,132.346c7.22,23.787 27.951,39.898 51.348,39.883c23.383,-0 44.1,-16.096 51.335,-39.898c17.745,-58.474 34.602,-114.007 40.17,-132.345Z" style="fill:#7b52ae;"/></g><g><path d="M1755.1,690.661c3.624,1.262 7.637,0.238 10.345,-2.658c14.885,-15.917 63.387,-67.783 81.827,-87.502c3.971,-4.247 3.971,-11.137 -0.014,-15.398c-18.426,-19.704 -66.942,-71.585 -81.827,-87.503c-2.708,-2.895 -6.693,-3.92 -10.345,-2.658c-17.149,5.954 -69.066,23.966 -123.761,42.957c-22.245,7.721 -37.31,29.89 -37.296,54.91c-0,25.005 15.051,47.159 37.31,54.895c54.681,18.977 106.612,37.003 123.761,42.957Z" style="fill:#7b52ae;"/></g><g><path d="M927.978,494.952c-3.624,-1.262 -7.637,-0.238 -10.344,2.658c-14.886,15.917 -63.388,67.783 -81.828,87.502c-3.971,4.247 -3.971,11.137 0.014,15.398l81.827,87.503c2.708,2.895 6.693,3.92 10.345,2.658c17.149,-5.954 69.066,-23.966 123.761,-42.957c22.245,-7.721 37.31,-29.89 37.297,-54.91c-0,-25.005 -15.052,-47.159 -37.311,-54.895c-54.681,-18.977 -106.612,-37.003 -123.761,-42.957Z" style="fill:#7b52ae;"/></g><g><path d="M1569.26,974.735c1.728,3.633 5.243,5.943 9.072,5.943l115.721,-0c5.617,-0 10.172,-4.872 10.172,-10.899l0,-123.747c0,-4.095 -2.14,-7.833 -5.557,-9.702c-16.063,-8.756 -64.684,-35.278 -115.917,-63.207c-20.835,-11.36 -46.147,-7.076 -62.682,10.626c-16.534,17.681 -20.54,44.728 -9.916,67.029c26.117,54.765 50.919,106.78 59.107,123.957Z" style="fill:#7b52ae;"/></g><g><path d="M1112.21,209.167c-1.728,-3.633 -5.243,-5.943 -9.072,-5.943l-115.721,0c-5.616,0 -10.172,4.872 -10.172,10.899l-0,123.747c-0,4.095 2.14,7.833 5.557,9.701c16.063,8.757 64.684,35.279 115.917,63.208c20.835,11.36 46.147,7.076 62.682,-10.626c16.534,-17.681 20.54,-44.728 9.916,-67.029c-26.117,-54.765 -50.918,-106.78 -59.107,-123.957Z" style="fill:#7b52ae;"/></g></g></g><g id="Bots"><g id="Shadow" transform="matrix(0.935138,0,0,1,-30340.5,0)"><text x="36369px" y="1148.04px" style="font-family:'MS-PGothic', 'MS PGothic', sans-serif;font-size:272.97px;fill:#aaa;fill-opacity:0;stroke:#aaa;stroke-width:0.55px;stroke-linecap:butt;stroke-miterlimit:2;">BOTS</text></g><g id="Main" transform="matrix(0.935138,0,0,1,-4049.46,0)"><text x="8229.52px" y="1128.39px" style="font-family:'MS-PGothic', 'MS PGothic', sans-serif;font-size:272.778px;fill:#fff;">BOTS</text></g></g><g id="Hyacinth"><g id="Shadow1" serif:id="Shadow"><path d="M2215.4,535.237c-0,-2.526 0.673,-4.508 2.025,-5.95c1.347,-1.443 3.201,-2.165 5.562,-2.165l79.922,0c2.362,0 4.216,0.722 5.567,2.165c1.347,1.442 2.021,3.424 2.021,5.95l-0,362.423c-0,2.526 -0.674,4.508 -2.021,5.952c-1.351,1.441 -3.205,2.163 -5.567,2.163l-79.922,-0c-2.361,-0 -4.215,-0.722 -5.562,-2.163c-1.352,-1.444 -2.025,-3.426 -2.025,-5.952l-0,-137.397c-0,-1.802 -0.844,-2.704 -2.532,-2.704l-78.912,-0c-1.683,-0 -2.527,0.902 -2.527,2.704l-0,137.397c-0,2.526 -0.674,4.508 -2.025,5.952c-1.347,1.441 -3.201,2.163 -5.563,2.163l-79.922,-0c-2.361,-0 -4.215,-0.722 -5.567,-2.163c-1.347,-1.444 -2.02,-3.426 -2.02,-5.952l-0,-362.423c-0,-2.526 0.673,-4.508 2.02,-5.95c1.352,-1.443 3.206,-2.165 5.567,-2.165l79.922,0c2.362,0 4.216,0.722 5.563,2.165c1.351,1.442 2.025,3.424 2.025,5.95l-0,132.528c-0,1.804 0.844,2.704 2.527,2.704l78.912,-0c1.688,-0 2.532,-0.9 2.532,-2.704l-0,-132.528Zm3.51,0c0,-1.38 0.258,-2.505 0.995,-3.295c0.741,-0.788 1.791,-1.062 3.082,-1.062l79.922,-0c1.292,-0 2.346,0.274 3.083,1.062c0.737,0.79 0.994,1.915 0.994,3.295l0,362.423c0,1.38 -0.257,2.505 -0.994,3.295c-0.737,0.788 -1.791,1.062 -3.083,1.062l-79.922,0c-1.291,0 -2.341,-0.274 -3.082,-1.062c-0.737,-0.79 -0.995,-1.915 -0.995,-3.295l0,-137.397c0,-2.111 -0.673,-3.627 -1.66,-4.683c-0.986,-1.057 -2.405,-1.777 -4.382,-1.777l-78.912,0c-1.973,0 -3.391,0.72 -4.378,1.777c-0.99,1.056 -1.664,2.572 -1.664,4.683l0,137.397c0,1.38 -0.253,2.505 -0.994,3.295c-0.737,0.788 -1.787,1.062 -3.079,1.062l-79.922,0c-1.291,0 -2.345,-0.274 -3.082,-1.062c-0.737,-0.79 -0.995,-1.915 -0.995,-3.295l0,-362.423c0,-1.38 0.258,-2.505 0.995,-3.295c0.737,-0.788 1.791,-1.062 3.082,-1.062l79.922,-0c1.292,-0 2.342,0.274 3.079,1.062c0.741,0.79 0.994,1.915 0.994,3.295l0,132.528c0,2.113 0.674,3.628 1.664,4.685c0.987,1.057 2.405,1.776 4.378,1.776l78.912,0c1.977,0 3.396,-0.719 4.382,-1.776c0.987,-1.057 1.66,-2.572 1.66,-4.685l0,-132.528Z" style="fill:#aaa;"/><path d="M2450.11,904.692c-2.362,0 -4.216,-0.721 -5.563,-2.163c-1.351,-1.443 -2.024,-3.426 -2.024,-5.95l-0,-119.546l-0.508,-3.246l-103.191,-236.928l-1.01,-4.328c-0,-3.605 2.191,-5.409 6.573,-5.409l87.006,0c4.386,0 7.421,2.165 9.105,6.492l48.055,129.283c1.015,2.524 2.025,2.524 3.035,-0l48.056,-129.283c1.688,-4.327 4.723,-6.492 9.105,-6.492l87.513,0c4.382,0 6.577,1.804 6.577,5.409l-1.014,4.328l-104.202,236.928c-0.341,0.722 -0.507,1.804 -0.507,3.246l0,119.546c0,2.524 -0.673,4.507 -2.025,5.95c-1.347,1.442 -3.201,2.163 -5.562,2.163l-79.419,0Zm-0,-3.755c-1.292,-0 -2.342,-0.276 -3.079,-1.064c-0.737,-0.788 -0.994,-1.915 -0.994,-3.294l-0,-119.546c-0,-0.207 -0.016,-0.413 -0.048,-0.617l-0.507,-3.246c-0.051,-0.335 -0.146,-0.661 -0.281,-0.968l-103.049,-236.602l-0.8,-3.417c0.19,-1.169 1.379,-1.303 3.035,-1.303l87.006,-0c2.817,-0 4.77,1.386 5.856,4.158l48.04,129.245c0.012,0.032 0.023,0.063 0.035,0.092c1.336,3.327 3.416,4.172 4.747,4.172c1.335,-0 3.415,-0.845 4.746,-4.172c0.012,-0.029 0.024,-0.06 0.036,-0.092l48.044,-129.245c1.085,-2.772 3.039,-4.158 5.852,-4.158l87.513,-0c1.66,-0 2.845,0.134 3.035,1.299c-0,0.004 -0.796,3.414 -0.796,3.414l-104.051,236.581c-0.5,1.099 -0.848,2.705 -0.848,4.859l-0,119.546c-0,1.379 -0.258,2.506 -0.995,3.294c-0.737,0.788 -1.787,1.064 -3.078,1.064l-79.419,-0Z" style="fill:#aaa;"/><path d="M2833.54,905.775c-4.719,-0 -7.588,-2.344 -8.598,-7.033l-11.129,-42.192c-0.674,-1.443 -1.518,-2.165 -2.528,-2.165l-107.241,0c-1.01,0 -1.854,0.722 -2.527,2.165l-11.13,42.192c-1.01,4.689 -3.879,7.033 -8.601,7.033l-86.499,-0c-6.07,-0 -8.261,-3.065 -6.573,-9.196l106.733,-362.965c1.347,-4.327 4.215,-6.492 8.597,-6.492l107.241,0c4.382,0 7.25,2.165 8.597,6.492l106.734,362.965c0.336,0.722 0.507,1.802 0.507,3.246c-0,3.965 -2.362,5.95 -7.084,5.95l-86.499,-0Zm-0,-3.758c-1.462,0 -2.667,-0.257 -3.554,-0.985c-0.84,-0.684 -1.324,-1.763 -1.621,-3.135c-0.012,-0.059 -0.028,-0.116 -0.043,-0.175l-11.13,-42.191c-0.059,-0.229 -0.138,-0.45 -0.238,-0.661c-1.442,-3.082 -3.51,-4.24 -5.669,-4.24l-107.241,-0c-2.159,-0 -4.231,1.158 -5.669,4.24c-0.099,0.211 -0.179,0.432 -0.242,0.661l-11.125,42.191c-0.016,0.059 -0.032,0.116 -0.044,0.175c-0.297,1.372 -0.78,2.451 -1.62,3.135c-0.888,0.728 -2.092,0.985 -3.558,0.985l-86.499,0c-0.884,0 -1.653,-0.073 -2.31,-0.252c-0.472,-0.127 -0.868,-0.254 -1.094,-0.571c-0.218,-0.3 -0.218,-0.714 -0.206,-1.194c0.02,-0.694 0.163,-1.469 0.396,-2.335l106.71,-362.884c0.828,-2.626 2.595,-3.901 5.261,-3.901l107.241,-0c2.65,-0 4.417,1.263 5.246,3.86c0.011,0.041 106.733,362.966 106.733,362.966c0.059,0.189 0.127,0.375 0.21,0.552c0.162,0.346 0.134,0.876 0.134,1.567c0,0.561 -0.031,1.04 -0.297,1.377c-0.606,0.764 -1.755,0.815 -3.272,0.815l-86.499,0Zm-113.148,-129.787c-0.036,0.13 -0.064,0.265 -0.083,0.399c-0.361,2.299 0.079,3.986 0.792,5.135c0.919,1.471 2.401,2.485 4.695,2.485l63.23,-0c2.56,-0 4.093,-1.118 4.949,-2.485c0.784,-1.258 1.192,-3.125 0.432,-5.628c0.004,0.013 -32.354,-121.09 -32.354,-121.09c-0.012,-0.053 -0.028,-0.104 -0.044,-0.156c-0.979,-3.144 -2.892,-4.192 -4.85,-4.192c-1.961,0 -3.87,1.048 -4.849,4.192c-0.02,0.057 -0.036,0.114 -0.052,0.171l-31.866,121.169Zm3.379,1.016c-0.336,2.165 0.337,3.245 2.025,3.245l63.23,0c2.025,0 2.698,-1.08 2.025,-3.245l-32.374,-121.169c-0.337,-1.08 -0.844,-1.621 -1.518,-1.621c-0.673,-0 -1.18,0.541 -1.517,1.621l-31.871,121.169Z" style="fill:#aaa;"/><path d="M3078.88,910.101c-27.655,0 -52.018,-5.77 -73.096,-17.309c-21.078,-11.539 -37.433,-27.858 -49.066,-48.954c-11.636,-21.097 -17.453,-45.529 -17.453,-73.297l0,-109.268c0,-27.407 5.817,-51.568 17.453,-72.485c11.633,-20.916 27.988,-37.144 49.066,-48.683c21.078,-11.539 45.441,-17.309 73.096,-17.309c27.651,-0 52.017,5.409 73.095,16.226c21.074,10.82 37.429,26.056 49.066,45.71c11.633,19.653 17.453,47.871 17.453,73.837c-0,3.245 -2.532,5.228 -7.588,5.95l-81.443,-0c-4.045,-0 -6.07,-1.983 -6.07,-5.95c0,-14.785 -4.045,-26.595 -12.14,-35.432c-8.094,-8.835 -18.887,-13.251 -32.373,-13.251c-13.491,-0 -24.28,4.416 -32.374,13.251c-8.095,8.837 -12.14,20.647 -12.14,35.432l0,116.301c0,14.424 4.045,26.053 12.14,34.89c8.094,8.835 18.883,13.251 32.374,13.251c13.486,0 24.279,-4.416 32.373,-13.251c8.095,-8.837 12.14,-20.466 12.14,-34.89c0,-2.165 0.674,-3.787 2.025,-4.87c1.347,-1.081 3.201,-1.441 5.562,-1.081l81.024,0c5.059,0.361 7.587,2.164 7.587,5.409c0,25.966 -6.917,53.192 -18.55,73.027c-11.637,19.833 -27.992,35.249 -49.066,46.249c-21.078,10.998 -45.444,16.497 -73.095,16.497Zm52.1,-249.319l-1.517,-0.019c-0.947,0 -1.704,-0.037 -2.179,-0.501c-0.369,-0.364 -0.377,-0.966 -0.377,-1.693c0,-15.897 -4.441,-28.559 -13.146,-38.059c-8.728,-9.529 -20.333,-14.382 -34.881,-14.382c-14.549,0 -26.154,4.853 -34.886,14.382c-8.701,9.5 -13.142,22.162 -13.142,38.059l-0,116.301c-0,15.523 4.433,28.008 13.142,37.517c8.732,9.529 20.337,14.382 34.886,14.382c14.548,-0 26.153,-4.853 34.881,-14.382c8.713,-9.509 13.146,-21.994 13.146,-37.517c0,-0.803 0.115,-1.462 0.618,-1.864c0.71,-0.57 1.716,-0.559 2.96,-0.368c0.163,0.024 0.329,0.037 0.495,0.037l80.901,0c1.446,0.111 2.619,0.335 3.495,0.773c0.404,0.203 0.701,0.446 0.701,0.88c-0,25.253 -6.696,51.739 -18.012,71.029c-11.291,19.25 -27.175,34.197 -47.631,44.871c-20.63,10.766 -44.486,16.118 -71.554,16.118c-27.045,-0 -50.881,-5.612 -71.495,-16.897c-20.46,-11.204 -36.348,-27.039 -47.644,-47.52c-11.327,-20.543 -16.961,-44.345 -16.961,-71.388l-0,-109.268c-0,-26.678 5.63,-50.204 16.957,-70.563c11.296,-20.31 27.184,-36.058 47.648,-47.262c20.614,-11.285 44.45,-16.896 71.495,-16.896c27.076,-0 50.936,5.265 71.574,15.858c20.448,10.495 36.332,25.262 47.619,44.331c11.316,19.115 16.906,46.577 16.906,71.828c0,0.543 -0.364,0.874 -0.871,1.165c-0.864,0.492 -2.013,0.808 -3.419,1.026c-0.024,0.003 -79.709,0.003 -79.709,0.003l0,0.019Z" style="fill:#aaa;"/><path d="M3259.47,905.775c-2.361,-0 -4.215,-0.722 -5.563,-2.163c-1.351,-1.444 -2.024,-3.426 -2.024,-5.952l-0,-362.423c-0,-2.526 0.673,-4.508 2.024,-5.95c1.348,-1.443 3.202,-2.165 5.563,-2.165l79.926,0c2.358,0 4.212,0.722 5.563,2.165c1.347,1.442 2.025,3.424 2.025,5.95l-0,362.423c-0,2.526 -0.678,4.508 -2.025,5.952c-1.351,1.441 -3.205,2.163 -5.563,2.163l-79.926,-0Zm0,-3.758c-1.291,0 -2.341,-0.274 -3.078,-1.062c-0.737,-0.79 -0.995,-1.915 -0.995,-3.295l0,-362.423c0,-1.38 0.258,-2.505 0.995,-3.295c0.737,-0.788 1.787,-1.062 3.078,-1.062l79.926,-0c1.288,-0 2.342,0.274 3.079,1.062c0.737,0.79 0.994,1.915 0.994,3.295l0,362.423c0,1.38 -0.257,2.505 -0.994,3.295c-0.737,0.788 -1.791,1.062 -3.079,1.062l-79.926,0Z" style="fill:#aaa;"/><path d="M3584.72,535.237c0,-2.526 0.674,-4.508 2.025,-5.95c1.347,-1.443 3.201,-2.165 5.563,-2.165l79.922,0c2.361,0 4.215,0.722 5.566,2.165c1.348,1.442 2.025,3.424 2.025,5.95l0,362.423c0,2.526 -0.677,4.508 -2.025,5.952c-1.351,1.441 -3.205,2.163 -5.566,2.163l-76.38,-0c-4.05,-0 -7.084,-1.804 -9.105,-5.409l-103.195,-183.917c-0.674,-1.082 -1.347,-1.533 -2.021,-1.353c-0.677,0.181 -1.014,0.993 -1.014,2.434l1.014,180.13c0,2.526 -0.677,4.508 -2.024,5.952c-1.348,1.441 -3.206,2.163 -5.563,2.163l-79.926,-0c-2.362,-0 -4.216,-0.722 -5.563,-2.163c-1.351,-1.444 -2.025,-3.426 -2.025,-5.952l0,-362.423c0,-2.526 0.674,-4.508 2.025,-5.95c1.347,-1.443 3.201,-2.165 5.563,-2.165l76.384,0c4.045,0 7.08,1.804 9.105,5.409l102.688,183.918c0.673,1.081 1.347,1.532 2.02,1.352c0.678,-0.181 1.014,-0.993 1.014,-2.434l-0.507,-180.13Zm3.515,-0.002c-0,-1.38 0.257,-2.503 0.994,-3.293c0.737,-0.788 1.787,-1.062 3.079,-1.062l79.922,-0c1.291,-0 2.345,0.274 3.082,1.062c0.737,0.79 0.995,1.915 0.995,3.295l-0,362.423c-0,1.38 -0.258,2.505 -0.995,3.295c-0.737,0.788 -1.791,1.062 -3.082,1.062l-76.38,0c-2.702,0 -4.743,-1.176 -6.094,-3.584l-103.191,-183.917c-0.032,-0.051 -0.06,-0.101 -0.091,-0.151c-1.811,-2.905 -3.986,-3.398 -5.797,-2.914c-1.834,0.492 -3.672,2.161 -3.672,6.079l1.01,180.135c-0,1.379 -0.258,2.502 -0.995,3.29c-0.737,0.788 -1.79,1.062 -3.078,1.062l-79.926,0c-1.292,0 -2.342,-0.274 -3.079,-1.062c-0.737,-0.79 -0.994,-1.915 -0.994,-3.295l-0,-362.423c-0,-1.38 0.257,-2.505 0.994,-3.295c0.737,-0.788 1.787,-1.062 3.079,-1.062l76.384,-0c2.702,-0 4.742,1.176 6.093,3.584l102.68,183.911c0.032,0.054 0.064,0.105 0.096,0.157c1.81,2.905 3.985,3.398 5.796,2.914c1.834,-0.49 3.673,-2.16 3.673,-6.079l-0.503,-180.132Z" style="fill:#aaa;"/><path d="M3983.84,527.122c2.361,0 4.215,0.722 5.563,2.165c1.351,1.442 2.024,3.424 2.024,5.95l0,71.403c0,2.524 -0.673,4.507 -2.024,5.95c-1.348,1.442 -3.202,2.163 -5.563,2.163l-84.982,0c-1.688,0 -2.528,0.902 -2.528,2.705l0,280.202c0,2.526 -0.677,4.508 -2.024,5.952c-1.351,1.441 -3.206,2.163 -5.563,2.163l-79.926,-0c-2.361,-0 -4.216,-0.722 -5.563,-2.163c-1.351,-1.444 -2.024,-3.426 -2.024,-5.952l-0,-280.202c-0,-1.803 -0.844,-2.705 -2.528,-2.705l-82.454,0c-2.361,0 -4.216,-0.721 -5.563,-2.163c-1.351,-1.443 -2.024,-3.426 -2.024,-5.95l-0,-71.403c-0,-2.526 0.673,-4.508 2.024,-5.95c1.347,-1.443 3.202,-2.165 5.563,-2.165l267.592,0Zm-0,3.758c1.291,-0 2.341,0.274 3.082,1.062c0.737,0.79 0.995,1.915 0.995,3.295l-0,71.403c-0,1.379 -0.258,2.506 -0.995,3.294c-0.741,0.787 -1.791,1.064 -3.082,1.064l-84.982,-0c-1.977,-0 -3.391,0.719 -4.382,1.776c-0.986,1.055 -1.66,2.572 -1.66,4.684l0,280.202c0,1.38 -0.257,2.505 -0.994,3.295c-0.737,0.788 -1.791,1.062 -3.079,1.062l-79.926,0c-1.292,0 -2.342,-0.274 -3.079,-1.062c-0.736,-0.79 -0.994,-1.915 -0.994,-3.295l0,-280.202c0,-2.112 -0.674,-3.629 -1.664,-4.684c-0.987,-1.057 -2.405,-1.776 -4.378,-1.776l-82.454,-0c-1.292,-0 -2.342,-0.277 -3.078,-1.064c-0.741,-0.788 -0.995,-1.915 -0.995,-3.294l0,-71.403c0,-1.38 0.254,-2.505 0.995,-3.295c0.736,-0.788 1.786,-1.062 3.078,-1.062l267.592,-0Z" style="fill:#aaa;"/><path d="M4199.33,535.237c-0,-2.526 0.673,-4.508 2.024,-5.95c1.348,-1.443 3.202,-2.165 5.563,-2.165l79.922,0c2.362,0 4.216,0.722 5.567,2.165c1.347,1.442 2.021,3.424 2.021,5.95l-0,362.423c-0,2.526 -0.674,4.508 -2.021,5.952c-1.351,1.441 -3.205,2.163 -5.567,2.163l-79.922,-0c-2.361,-0 -4.215,-0.722 -5.563,-2.163c-1.351,-1.444 -2.024,-3.426 -2.024,-5.952l-0,-137.397c-0,-1.802 -0.844,-2.704 -2.532,-2.704l-78.912,-0c-1.684,-0 -2.527,0.902 -2.527,2.704l-0,137.397c-0,2.526 -0.674,4.508 -2.025,5.952c-1.347,1.441 -3.201,2.163 -5.563,2.163l-79.922,-0c-2.361,-0 -4.216,-0.722 -5.567,-2.163c-1.347,-1.444 -2.02,-3.426 -2.02,-5.952l-0,-362.423c-0,-2.526 0.673,-4.508 2.02,-5.95c1.351,-1.443 3.206,-2.165 5.567,-2.165l79.922,0c2.362,0 4.216,0.722 5.563,2.165c1.351,1.442 2.025,3.424 2.025,5.95l-0,132.528c-0,1.804 0.843,2.704 2.527,2.704l78.912,-0c1.688,-0 2.532,-0.9 2.532,-2.704l-0,-132.528Zm3.51,0c0,-1.38 0.258,-2.505 0.995,-3.295c0.741,-0.788 1.791,-1.062 3.082,-1.062l79.922,-0c1.292,-0 2.346,0.274 3.083,1.062c0.737,0.79 0.994,1.915 0.994,3.295l0,362.423c0,1.38 -0.257,2.505 -0.994,3.295c-0.737,0.788 -1.791,1.062 -3.083,1.062l-79.922,0c-1.291,0 -2.341,-0.274 -3.082,-1.062c-0.737,-0.79 -0.995,-1.915 -0.995,-3.295l0,-137.397c0,-2.111 -0.673,-3.627 -1.66,-4.683c-0.986,-1.057 -2.405,-1.777 -4.382,-1.777l-78.912,0c-1.973,0 -3.391,0.72 -4.378,1.777c-0.99,1.056 -1.664,2.572 -1.664,4.683l0,137.397c0,1.38 -0.253,2.505 -0.994,3.295c-0.737,0.788 -1.787,1.062 -3.079,1.062l-79.922,0c-1.292,0 -2.345,-0.274 -3.082,-1.062c-0.737,-0.79 -0.995,-1.915 -0.995,-3.295l0,-362.423c0,-1.38 0.258,-2.505 0.995,-3.295c0.737,-0.788 1.79,-1.062 3.082,-1.062l79.922,-0c1.292,-0 2.342,0.274 3.079,1.062c0.741,0.79 0.994,1.915 0.994,3.295l0,132.528c0,2.113 0.674,3.628 1.664,4.685c0.987,1.057 2.405,1.776 4.378,1.776l78.912,0c1.977,0 3.396,-0.719 4.382,-1.776c0.987,-1.057 1.66,-2.572 1.66,-4.685l0,-132.528Z" style="fill:#aaa;"/></g><g id="Main1" serif:id="Main"><path d="M2145.15,497.673c-0,-2.526 0.673,-4.509 2.024,-5.95c1.347,-1.444 3.202,-2.165 5.563,-2.165l79.922,-0c2.362,-0 4.216,0.721 5.567,2.165c1.347,1.441 2.021,3.424 2.021,5.95l-0,362.422c-0,2.526 -0.674,4.509 -2.021,5.952c-1.351,1.441 -3.205,2.163 -5.567,2.163l-79.922,0c-2.361,0 -4.216,-0.722 -5.563,-2.163c-1.351,-1.443 -2.024,-3.426 -2.024,-5.952l-0,-137.397c-0,-1.802 -0.844,-2.704 -2.532,-2.704l-78.912,0c-1.684,0 -2.528,0.902 -2.528,2.704l0,137.397c0,2.526 -0.673,4.509 -2.024,5.952c-1.347,1.441 -3.201,2.163 -5.563,2.163l-79.922,0c-2.361,0 -4.216,-0.722 -5.567,-2.163c-1.347,-1.443 -2.02,-3.426 -2.02,-5.952l-0,-362.422c-0,-2.526 0.673,-4.509 2.02,-5.95c1.351,-1.444 3.206,-2.165 5.567,-2.165l79.922,-0c2.362,-0 4.216,0.721 5.563,2.165c1.351,1.441 2.024,3.424 2.024,5.95l0,132.527c0,1.804 0.844,2.704 2.528,2.704l78.912,0c1.688,0 2.532,-0.9 2.532,-2.704l-0,-132.527Z" style="fill:#fff;fill-rule:nonzero;"/><path d="M2379.86,867.128c-2.362,-0 -4.216,-0.722 -5.563,-2.164c-1.351,-1.443 -2.025,-3.426 -2.025,-5.95l0,-119.546l-0.507,-3.246l-103.191,-236.927l-1.01,-4.329c-0,-3.604 2.191,-5.408 6.573,-5.408l87.006,-0c4.386,-0 7.421,2.165 9.105,6.491l48.055,129.283c1.015,2.524 2.025,2.524 3.035,0l48.056,-129.283c1.688,-4.326 4.722,-6.491 9.104,-6.491l87.514,-0c4.382,-0 6.577,1.804 6.577,5.408l-1.014,4.329l-104.202,236.927c-0.341,0.722 -0.507,1.805 -0.507,3.246l-0,119.546c-0,2.524 -0.674,4.507 -2.025,5.95c-1.347,1.442 -3.201,2.164 -5.562,2.164l-79.419,-0Z" style="fill:#fff;fill-rule:nonzero;"/><path d="M2763.29,868.21c-4.718,0 -7.587,-2.343 -8.597,-7.032l-11.13,-42.192c-0.673,-1.444 -1.517,-2.165 -2.527,-2.165l-107.241,-0c-1.01,-0 -1.854,0.721 -2.527,2.165l-11.13,42.192c-1.01,4.689 -3.879,7.032 -8.601,7.032l-86.5,0c-6.069,0 -8.26,-3.065 -6.573,-9.196l106.734,-362.965c1.347,-4.326 4.215,-6.491 8.597,-6.491l107.241,-0c4.382,-0 7.25,2.165 8.597,6.491l106.733,362.965c0.337,0.722 0.508,1.803 0.508,3.246c-0,3.966 -2.362,5.95 -7.084,5.95l-86.5,0Zm-109.768,-132.529c-0.337,2.165 0.337,3.246 2.025,3.246l63.23,-0c2.025,-0 2.698,-1.081 2.025,-3.246l-32.374,-121.168c-0.337,-1.081 -0.844,-1.622 -1.518,-1.622c-0.673,-0 -1.18,0.541 -1.517,1.622l-31.871,121.168Z" style="fill:#fff;fill-rule:nonzero;"/><path d="M3008.62,872.536c-27.655,0 -52.017,-5.769 -73.095,-17.308c-21.078,-11.54 -37.433,-27.858 -49.066,-48.954c-11.636,-21.098 -17.453,-45.53 -17.453,-73.297l0,-109.268c0,-27.407 5.817,-51.568 17.453,-72.486c11.633,-20.915 27.988,-37.143 49.066,-48.683c21.078,-11.539 45.44,-17.309 73.095,-17.309c27.651,0 52.018,5.409 73.096,16.227c21.074,10.819 37.429,26.055 49.066,45.71c11.632,19.652 17.453,47.871 17.453,73.836c-0,3.246 -2.532,5.229 -7.588,5.95l-81.443,0c-4.046,0 -6.07,-1.983 -6.07,-5.95c-0,-14.785 -4.045,-26.595 -12.14,-35.432c-8.094,-8.834 -18.887,-13.251 -32.374,-13.251c-13.49,0 -24.279,4.417 -32.373,13.251c-8.095,8.837 -12.14,20.647 -12.14,35.432l0,116.301c0,14.424 4.045,26.054 12.14,34.89c8.094,8.835 18.883,13.252 32.373,13.252c13.487,-0 24.28,-4.417 32.374,-13.252c8.095,-8.836 12.14,-20.466 12.14,-34.89c-0,-2.165 0.673,-3.787 2.024,-4.87c1.348,-1.08 3.202,-1.441 5.563,-1.08l81.024,-0c5.059,0.361 7.587,2.163 7.587,5.409c0,25.965 -6.918,53.191 -18.55,73.026c-11.637,19.833 -27.992,35.249 -49.066,46.249c-21.078,10.998 -45.445,16.497 -73.096,16.497Z" style="fill:#fff;fill-rule:nonzero;"/><path d="M3189.21,868.21c-2.361,0 -4.216,-0.722 -5.563,-2.163c-1.351,-1.443 -2.024,-3.426 -2.024,-5.952l-0,-362.422c-0,-2.526 0.673,-4.509 2.024,-5.95c1.347,-1.444 3.202,-2.165 5.563,-2.165l79.926,-0c2.357,-0 4.212,0.721 5.563,2.165c1.347,1.441 2.024,3.424 2.024,5.95l0,362.422c0,2.526 -0.677,4.509 -2.024,5.952c-1.351,1.441 -3.206,2.163 -5.563,2.163l-79.926,0Z" style="fill:#fff;fill-rule:nonzero;"/><path d="M3514.47,497.673c0,-2.526 0.674,-4.509 2.025,-5.95c1.347,-1.444 3.201,-2.165 5.562,-2.165l79.923,-0c2.361,-0 4.215,0.721 5.566,2.165c1.347,1.441 2.025,3.424 2.025,5.95l-0,362.422c-0,2.526 -0.678,4.509 -2.025,5.952c-1.351,1.441 -3.205,2.163 -5.566,2.163l-76.38,0c-4.05,0 -7.085,-1.804 -9.105,-5.409l-103.195,-183.916c-0.674,-1.083 -1.347,-1.534 -2.021,-1.353c-0.678,0.18 -1.014,0.992 -1.014,2.433l1.014,180.13c-0,2.526 -0.678,4.509 -2.025,5.952c-1.347,1.441 -3.205,2.163 -5.562,2.163l-79.926,0c-2.362,0 -4.216,-0.722 -5.563,-2.163c-1.351,-1.443 -2.025,-3.426 -2.025,-5.952l0,-362.422c0,-2.526 0.674,-4.509 2.025,-5.95c1.347,-1.444 3.201,-2.165 5.563,-2.165l76.384,-0c4.045,-0 7.08,1.804 9.104,5.408l102.688,183.919c0.674,1.08 1.347,1.531 2.021,1.351c0.678,-0.18 1.014,-0.992 1.014,-2.434l-0.507,-180.129Z" style="fill:#fff;fill-rule:nonzero;"/><path d="M3913.58,489.558c2.361,-0 4.215,0.721 5.562,2.165c1.351,1.441 2.025,3.424 2.025,5.95l-0,71.402c-0,2.524 -0.674,4.507 -2.025,5.95c-1.347,1.442 -3.201,2.164 -5.562,2.164l-84.982,-0c-1.688,-0 -2.528,0.902 -2.528,2.704l0,280.202c0,2.526 -0.677,4.509 -2.024,5.952c-1.351,1.441 -3.206,2.163 -5.563,2.163l-79.926,0c-2.362,0 -4.216,-0.722 -5.563,-2.163c-1.351,-1.443 -2.024,-3.426 -2.024,-5.952l-0,-280.202c-0,-1.802 -0.844,-2.704 -2.528,-2.704l-82.454,-0c-2.362,-0 -4.216,-0.722 -5.563,-2.164c-1.351,-1.443 -2.024,-3.426 -2.024,-5.95l-0,-71.402c-0,-2.526 0.673,-4.509 2.024,-5.95c1.347,-1.444 3.201,-2.165 5.563,-2.165l267.592,-0Z" style="fill:#fff;fill-rule:nonzero;"/><path d="M4129.07,497.673c-0,-2.526 0.673,-4.509 2.024,-5.95c1.347,-1.444 3.202,-2.165 5.563,-2.165l79.922,-0c2.362,-0 4.216,0.721 5.567,2.165c1.347,1.441 2.02,3.424 2.02,5.95l0,362.422c0,2.526 -0.673,4.509 -2.02,5.952c-1.351,1.441 -3.205,2.163 -5.567,2.163l-79.922,0c-2.361,0 -4.216,-0.722 -5.563,-2.163c-1.351,-1.443 -2.024,-3.426 -2.024,-5.952l-0,-137.397c-0,-1.802 -0.844,-2.704 -2.532,-2.704l-78.912,0c-1.684,0 -2.528,0.902 -2.528,2.704l0,137.397c0,2.526 -0.673,4.509 -2.024,5.952c-1.347,1.441 -3.202,2.163 -5.563,2.163l-79.922,0c-2.361,0 -4.216,-0.722 -5.567,-2.163c-1.347,-1.443 -2.02,-3.426 -2.02,-5.952l-0,-362.422c-0,-2.526 0.673,-4.509 2.02,-5.95c1.351,-1.444 3.206,-2.165 5.567,-2.165l79.922,-0c2.361,-0 4.216,0.721 5.563,2.165c1.351,1.441 2.024,3.424 2.024,5.95l0,132.527c0,1.804 0.844,2.704 2.528,2.704l78.912,0c1.688,0 2.532,-0.9 2.532,-2.704l-0,-132.527Z" style="fill:#fff;fill-rule:nonzero;"/></g></g></svg>